<svg xmlns="http://www.w3.org/2000/svg" width="215" height="38" viewBox="0 0 215 38">
    <g fill="none" fill-rule="evenodd">
        <text fill="#555" font-family="HelveticaNeue, Helvetica Neue" font-size="14" transform="translate(6 7)">
            <tspan x="32" y="18">Dịch vụ thư ký theo yêu cầu</tspan>
        </text>
        <g fill="#3ACAAA" fill-rule="nonzero">
            <path d="M27.233 25.387a3.986 3.986 0 0 0-2.662-3.139l-.94-.316v-3.74h-.722v3.498l-1.445-.485v-.466h-.722v.66c-.075.18-.383.796-1.083.796a9.009 9.009 0 0 1-3.972-.946v-.51h-.722v.465l-1.444.485v-3.497h-.723v3.74l-.94.316a3.986 3.986 0 0 0-2.662 3.14L8.4 30.2h19.629l-.796-4.813zm-7.213-2.403c.42.15.722.555.722 1.03v1.393a1.093 1.093 0 0 1-.722-1.03v-1.393zm-1.444 1.03c0-.475.302-.88.722-1.03v1.394c0 .474-.302.879-.722 1.03v-1.394zm5.994 5.458a3.71 3.71 0 0 0 .144-1.091c0-1.189-.75-2.337-.783-2.386l-.6.404c.006.01.661 1.011.661 1.982 0 .603-.12.938-.195 1.091h-5.221v-2.547h-.722v2.547h-5.22c-.079-.158-.197-.492-.197-1.091 0-.965.655-1.972.662-1.982l-.601-.403c-.032.048-.783 1.196-.783 2.385 0 .476.064.829.144 1.091H9.253l.655-3.965a3.262 3.262 0 0 1 2.178-2.569l1.422-.477c1.215 1.024 3.446 1.523 3.547 1.545l.153-.711c-.02-.005-1.731-.388-2.86-1.117l.942-.316c.384.207 1.488.74 3.015.961-.277.32-.451.734-.451 1.19v2.184h.36c.593 0 1.116-.293 1.445-.739.33.446.852.74 1.444.74h.361v-2.184c0-.595-.288-1.119-.727-1.45.264-.203.444-.452.556-.65l.767.258-.49.493.511.515.745-.751 1.517.51a3.262 3.262 0 0 1 2.178 2.568l.655 3.965H24.57z"/>
            <path d="M13.694 17.554a3.962 3.962 0 0 0 1 1.698l1.404 1.411c.34.342.792.53 1.273.53h1.687c.48 0 .933-.188 1.273-.53l1.403-1.41a3.966 3.966 0 0 0 1.001-1.7 1.803 1.803 0 0 0 1.599-1.79c0-.593-.29-1.117-.731-1.447h.011V13.23c0-.787-.167-1.543-.489-2.251.016-.02.035-.037.05-.057l.144-.18-.103-.208c-.031-.063-.788-1.555-2.657-2.682l-.085-.052h-4.52l-.084.052c-1.868 1.127-2.626 2.62-2.657 2.682l-.103.207.144.181c.015.02.034.037.05.057a5.404 5.404 0 0 0-.49 2.25v1.087h.012c-.441.33-.731.854-.731 1.448 0 .929.702 1.688 1.599 1.79zm8.48-1.118c0 .87-.337 1.688-.949 2.304l-1.403 1.412a1.07 1.07 0 0 1-.764.318H17.37a1.07 1.07 0 0 1-.764-.318l-1.403-1.412a3.247 3.247 0 0 1-.95-2.304v-1.758h4.742c.628 0 1.245-.217 1.738-.604.415.325.917.521 1.44.579v1.783zm1.44-.672c0 .477-.31.88-.737 1.024.01-.116.017-.233.017-.352v-1.691c.418.15.72.548.72 1.019zm-7.459-7.24h4.118a6.928 6.928 0 0 1 2.182 2.132c-1.282 1.41-3.769 2.084-4.24 2.202-.473-.117-2.958-.79-4.241-2.203.254-.408.934-1.355 2.181-2.131zm-2.62 4.706c0-.586.11-1.15.317-1.688 1.627 1.432 4.163 2.014 4.285 2.042l.077.017.079-.018c.12-.027 2.657-.61 4.285-2.041.206.537.316 1.102.316 1.688v.76a1.789 1.789 0 0 0-.36-.036h-.062a2.106 2.106 0 0 1-1.483-.618l-.255-.256-.254.256c-.39.393-.931.618-1.484.618h-5.101c-.123 0-.244.013-.36.036v-.76zm0 1.515v1.691c0 .118.007.236.017.352a1.083 1.083 0 0 1-.737-1.024c0-.471.302-.87.72-1.02z"/>
            <path d="M18.33 11.957l.08-.019c.074-.017 1.837-.434 3.384-1.417l-.381-.643c-1.263.803-2.728 1.214-3.083 1.306-.355-.092-1.82-.503-3.083-1.305l-.381.642c1.547.983 3.31 1.4 3.384 1.418l.08.018z"/>
        </g>
    </g>
</svg>
