<svg xmlns="http://www.w3.org/2000/svg" width="30" height="30" viewBox="0 0 30 30">
    <path fill="#555" fill-rule="nonzero" d="M25.587 16.113c-2.027-2.51-5.846-5.496-12.58-5.752V5.714a.715.715 0 0 0-.4-.646.693.693 0 0 0-.745.093L1.258 14.052A.721.721 0 0 0 1 14.6c0 .216.092.414.252.548l10.604 8.926a.684.684 0 0 0 .745.093.708.708 0 0 0 .4-.646v-4.63c4.398.018 11.12.35 14.688 6.749a.698.698 0 0 0 1.311-.35c.006-2.392-.893-6.055-3.413-9.176zm-13.284 1.351a.696.696 0 0 0-.498.21.72.72 0 0 0-.206.506v3.826l-8.79-7.4 8.795-7.378v3.825c0 .39.31.71.693.717 10.078.099 13.834 6.346 14.928 10.736-4.34-5.036-10.84-5.042-14.922-5.042z"/>
</svg>
