<svg xmlns="http://www.w3.org/2000/svg" width="30" height="30" viewBox="0 0 30 30">
    <path fill="#A6A6A6" fill-rule="nonzero" d="M28.854 17.023l-2.691-3.609a.467.467 0 0 0-.565-.146c-.06.027-6.076 2.769-11.396 7.41a.464.464 0 1 0 .612.701c4.498-3.923 9.503-6.462 10.83-7.103l2.332 3.127-.341 1.362c-1.444.287-7.987 1.652-14.867 4.056l-2.32-2.32c6.974-3.04 14.482-7.881 14.56-7.932.154-.099.235-.28.207-.461l-.932-6.055c-.003-.024-.014-.044-.02-.065-.006-.02-.01-.038-.019-.056a.454.454 0 0 0-.091-.138h-.001l-.008-.006a.458.458 0 0 0-.132-.086c-.017-.008-.035-.013-.054-.018-.021-.007-.041-.017-.064-.02l-6.055-.932a.465.465 0 0 0-.462.207c-.05.077-4.89 7.585-7.893 14.597l-2.352-2.352C9.575 10.63 11.666 3.721 12.084 2.32l1.349-.337 2.3 2.312c-.605 1.246-3.175 6.285-7.164 10.838a.466.466 0 0 0 .7.614c4.663-5.322 7.423-11.294 7.45-11.354a.465.465 0 0 0-.093-.522l-2.72-2.732a.463.463 0 0 0-.443-.124L11.6 1.48a.466.466 0 0 0-.333.32c-.023.08-2.345 7.949-5.093 15.284l-2.907 4.153-.074-.073a.465.465 0 0 0-.658 0c-.877.876-1.43 2.065-1.518 3.26-.093 1.273.33 2.447 1.19 3.308a4.178 4.178 0 0 0 2.978 1.22c1.308 0 2.62-.562 3.598-1.54a.465.465 0 0 0 0-.659l-.074-.073 4.15-2.905c7.77-2.736 15.168-4.138 15.242-4.152a.466.466 0 0 0 .366-.345l.466-1.863a.467.467 0 0 0-.079-.392zM17.998 5.698l4.85.747-5.622 5.658a.466.466 0 1 0 .66.657l5.617-5.654.745 4.843c-1.33.844-7.659 4.797-13.709 7.494 2.665-6.079 6.615-12.414 7.459-13.745zM6.654 18.024l2.324 2.324-1.31 1.297-2.088-2.088 1.074-1.533zm-1.617 2.308L7.005 22.3 5.66 23.63l-1.725-1.724 1.102-1.574zm.148 7.688c-.898 0-1.7-.328-2.319-.946-.666-.667-.993-1.584-.92-2.582.061-.827.397-1.651.936-2.322l2.445 2.445v.001h.002l2.448 2.45c-.752.61-1.675.954-2.592.954zM8.04 26.01L6.319 24.29l1.345-1.331 1.95 1.95-1.573 1.102zm2.348-1.644l-2.063-2.063 1.31-1.297 2.287 2.286-1.534 1.074z"/>
</svg>
