<svg xmlns="http://www.w3.org/2000/svg" xmlns:xlink="http://www.w3.org/1999/xlink" width="28" height="28" viewBox="0 0 28 28">
    <defs>
        <path id="a" d="M0 0h24v24H0z"/>
    </defs>
    <g fill="none" fill-rule="evenodd" transform="translate(2 2)">
        <mask id="b" fill="#fff">
            <use xlink:href="#a"/>
        </mask>
        <path fill="#555" d="M23.983 10.994A1.197 1.197 0 0 0 22.8 10h-20V8.4h.8v.4a.4.4 0 1 0 .8 0V7.2a.4.4 0 1 0-.8 0v.4h-.8V2.8a2 2 0 1 1 4 0v.036a2.402 2.402 0 0 0-2 2.364c0 .22.18.4.4.4h4a.4.4 0 0 0 .4-.4 2.401 2.401 0 0 0-2-2.364V2.8a2.8 2.8 0 0 0-5.6 0V10h-.8a1.197 1.197 0 0 0-.4 2.326V14.8a7.603 7.603 0 0 0 4.4 6.884V23.2a.8.8 0 0 0 .8.8h.8a.8.8 0 0 0 .8-.8v-.843c.266.028.533.043.8.043h7.2c.267 0 .534-.015.8-.043v.843a.8.8 0 0 0 .8.8h.8a.8.8 0 0 0 .8-.8v-1.516a7.604 7.604 0 0 0 4.4-6.884v-2.474c.55-.193.882-.756.783-1.332zM8.749 4.8H5.651a1.6 1.6 0 0 1 3.098 0zM6.8 23.2H6v-1.195c.262.09.53.163.8.222v.973zm11.2 0h-.8v-.973c.27-.059.538-.133.8-.222V23.2zm4.4-8.4a6.81 6.81 0 0 1-4.15 6.263l-.01.003a6.763 6.763 0 0 1-2.64.534H8.4c-.907 0-1.805-.18-2.64-.534l-.009-.003a6.81 6.81 0 0 1-4.15-6.263v-2.4H22.4v2.4zm.4-3.2H1.2a.4.4 0 0 1 0-.8h21.6a.4.4 0 1 1 0 .8z" mask="url(#b)"/>
    </g>
</svg>
