<svg xmlns="http://www.w3.org/2000/svg" width="28" height="28" viewBox="0 0 28 28">
    <path fill="#555" fill-rule="evenodd" d="M23.664 11.304V5.53C23.664 2.95 22.432 2 21.277 2H6.647c-1.156 0-2.388.911-2.388 3.531v5.773C3.104 11.494 2 12.633 2 15.254v4.48c0 .76.41 1.367.924 1.367h.308v3.532c0 .76.41 1.367.924 1.367h.873c.513 0 .924-.607.924-1.367v-3.57h16.094v3.57c0 .76.41 1.367.924 1.367h.873c.513 0 .924-.607.924-1.367v-3.57h.308c.513 0 .924-.607.924-1.366v-4.444c-.077-2.62-1.18-3.76-2.336-3.95zM5 6.192h.053C5.053 4.385 5.866 4 6.548 4h14.956C22.187 4 23 4.385 23 6.192V12h-.708V8.692c0-.769-.42-1.384-.945-1.384h-5.773c-.524 0-.944.615-.944 1.384V12h-1.102V8.692c0-.769-.42-1.384-.945-1.384H6.811c-.525 0-.945.615-.945 1.384V12H5V6.192zM15 11h6V8h-6v3zm-8 0h6V8H7v3zM4 25h1v-4H4v4zm19 0h1v-4h-1v4zM3 20h22v-2H3v2zm22-3H3v-1.184C3 13.368 4.124 13 4.763 13h18.474c.664 0 1.763.368 1.763 2.816V17z"/>
</svg>
