<svg xmlns="http://www.w3.org/2000/svg" width="30" height="30" viewBox="0 0 30 30">
    <g fill="#A6A6A6" fill-rule="nonzero">
        <path d="M28.425 12.116h-.663V9.258c0-.837-.714-1.518-1.593-1.518h-1.336V5.66l-.002-.034.002-.033V4.042C24.833 2.364 23.4 1 21.642 1H8.358c-1.76 0-3.19 1.364-3.19 3.042v1.55l.001.034-.002.033V7.74H3.83c-.878 0-1.592.681-1.592 1.518v2.858h-.663a.56.56 0 0 0-.574.547v4.399a.56.56 0 0 0 .574.547h2.63a.56.56 0 0 0 .574-.547v-4.4a.56.56 0 0 0-.574-.546h-.82V9.258c0-.234.2-.424.445-.424h1.337V25.19c0 .552.41 1.014.954 1.127v1.175c0 .832.71 1.508 1.582 1.508h1.822c.872 0 1.582-.676 1.582-1.508v-1.149h7.786v1.15c0 .83.71 1.507 1.582 1.507h1.822c.873 0 1.582-.676 1.582-1.508v-1.175c.544-.113.954-.575.954-1.127V8.834h1.336c.246 0 .445.19.445.424v2.858h-.819a.56.56 0 0 0-.574.547v4.399a.56.56 0 0 0 .574.547h2.63a.56.56 0 0 0 .574-.547v-4.4a.56.56 0 0 0-.574-.546zM3.631 13.21v3.305H2.148V13.21h1.483zM9.96 27.492a.425.425 0 0 1-.434.414H7.703a.425.425 0 0 1-.435-.414v-1.149H9.96v1.15zm12.773 0a.425.425 0 0 1-.435.414h-1.822a.425.425 0 0 1-.434-.414v-1.149h2.69v1.15zm.953-2.302c0 .033-.028.06-.062.06H6.377a.061.061 0 0 1-.062-.06v-2.41h4.265c.586 0 1.063-.455 1.063-1.014v-1.631h6.788v1.631c0 .56.478 1.014 1.064 1.014h4.19v2.41zM6.39 21.686v-1.539h4.107v1.54H6.389zm17.296 0H19.58v-1.539h4.106v1.54zm0-13.399v10.754H15.42l-3.03-3.304a.594.594 0 0 0-.81-.052.53.53 0 0 0-.054.772l2.37 2.584h-7.58V6.206h17.37v2.081zm0-3.241H6.315V4.04c0-1.073.917-1.947 2.043-1.947h13.284c1.126 0 2.043.874 2.043 1.948v1.004zm4.167 11.47h-1.483V13.21h1.483v3.305z"/>
        <path d="M16.825 23.29h-3.65a.56.56 0 0 0-.574.546.56.56 0 0 0 .574.547h3.65a.56.56 0 0 0 .574-.547.56.56 0 0 0-.574-.546zM11.009 14.343a.533.533 0 0 0-.157-.28.57.57 0 0 0-.294-.15.595.595 0 0 0-.589.233.555.555 0 0 0-.085.197.514.514 0 0 0 .032.316.55.55 0 0 0 .31.296.602.602 0 0 0 .539-.05.575.575 0 0 0 .211-.246.533.533 0 0 0 .033-.316z"/>
    </g>
</svg>
