<svg xmlns="http://www.w3.org/2000/svg" width="30" height="30" viewBox="0 0 30 30">
    <g fill="#A6A6A6" fill-rule="nonzero">
        <path d="M22.583 12.333H6.249c-.965 0-1.75.785-1.75 1.75v1.166c0 4.163 2.3 7.938 6 9.853a.584.584 0 0 0 .536-1.037 9.892 9.892 0 0 1-5.369-8.816v-1.166c0-.322.261-.584.583-.584h16.334c.322 0 .583.262.583.584v1.166a9.888 9.888 0 0 1-5.37 8.814.584.584 0 0 0 .535 1.038 11.05 11.05 0 0 0 6.002-9.852v-1.166c0-.965-.786-1.75-1.75-1.75z"/>
        <path d="M27.79 24.359a.585.585 0 0 0-.54-.36H1.584a.585.585 0 0 0-.413.995l1.308 1.31a4.059 4.059 0 0 0 2.887 1.195h18.1c1.09 0 2.116-.424 2.89-1.196l1.308-1.309a.582.582 0 0 0 .125-.635zm-2.26 1.12a2.9 2.9 0 0 1-2.063.854h-18.1a2.9 2.9 0 0 1-2.063-.854l-.313-.313h22.851l-.312.313zM27.871 15.087c-1.571-1.01-4.082.086-4.363.214a.584.584 0 0 0 .484 1.062c.562-.255 2.366-.86 3.248-.292.398.255.593.751.593 1.512 0 2.335-4.711 3.747-6.53 4.095l-.413.081a.583.583 0 1 0 .225 1.144l.41-.08c.305-.06 7.474-1.465 7.474-5.24 0-1.174-.38-2.013-1.128-2.496zM18.958 7.447c.948-1.186.948-3.042 0-4.227a.583.583 0 1 0-.911.73c.6.75.6 2.017-.001 2.77-.95 1.185-.95 3.041 0 4.227a.581.581 0 0 0 .82.09.583.583 0 0 0 .09-.82c-.601-.75-.601-2.018.002-2.77zM15.453 7.447c.95-1.186.95-3.042 0-4.227a.583.583 0 1 0-.911.729c.602.75.602 2.018-.001 2.77-.949 1.186-.949 3.042 0 4.228a.581.581 0 0 0 .82.09.583.583 0 0 0 .091-.82c-.6-.75-.6-2.018.001-2.77zM11.958 7.448c.948-1.186.948-3.042 0-4.227a.583.583 0 0 0-.911.728c.6.75.6 2.018-.001 2.77-.95 1.186-.95 3.042 0 4.228a.581.581 0 0 0 .82.092.583.583 0 0 0 .09-.82c-.601-.752-.601-2.019.002-2.771z"/>
    </g>
</svg>
