<svg xmlns="http://www.w3.org/2000/svg" width="30" height="30" viewBox="0 0 30 30">
    <g fill="#555" fill-rule="nonzero">
        <path d="M22.172 8.076l-.624-4.242c-.071-.481-.436-.834-.863-.834H9.31c-.427 0-.792.353-.863.835l-.622 4.241H1.875c-.483 0-.875.447-.875 1V26c0 .553.392 1 .875 1h26.25c.483 0 .875-.447.875-1V9.076c0-.553-.392-1-.875-1h-5.953zM27.25 25H2.75V10.076h5.816c.427 0 .792-.353.863-.835L10.05 5h9.894l.623 4.242c.071.481.436.834.863.834h5.819V25z"/>
        <path d="M15 11c-3.309 0-6 2.692-6 6s2.691 6 6 6 6-2.692 6-6-2.691-6-6-6zm0 10c-2.206 0-4-1.794-4-4s1.794-4 4-4 4 1.794 4 4-1.794 4-4 4z"/>
    </g>
</svg>
