<svg xmlns="http://www.w3.org/2000/svg" width="30" height="30" viewBox="0 0 30 30">
    <g fill="none" fill-rule="evenodd">
        <rect width="28" height="28" x="1" y="1" fill="#E4375C" rx="3"/>
        <path fill="#FFF" d="M24.046 11.369L22.49 9.847a1.07 1.07 0 0 0-.778-.314c-.305 0-.564.105-.778.314l-7.505 7.356-3.363-3.304a1.073 1.073 0 0 0-.778-.313c-.306 0-.565.105-.779.313l-1.555 1.523c-.214.21-.32.463-.32.761 0 .299.106.553.32.762l5.697 5.575c.214.21.473.313.778.313.305 0 .564-.104.778-.313l9.84-9.628c.213-.21.32-.463.32-.761 0-.299-.107-.553-.32-.762z"/>
    </g>
</svg>
