<svg xmlns="http://www.w3.org/2000/svg" width="28" height="28" viewBox="0 0 28 28">
    <g fill="#CCC" fill-rule="evenodd">
        <path d="M5.047 25.324h3.44c.046.381.297.676.608.676h7.81c.317 0 .562-.295.608-.676h3.44c.58 0 1.047-.59 1.047-1.324H4c0 .735.467 1.324 1.047 1.324zM26.077 14.476c-.867-.74-2.09-.752-2.89-.656.022-.593.034-1.197.034-1.82H2c0 6.024.868 10.378 6.361 12h8.498c2.176-.644 3.618-1.723 4.576-3.157 2.084-.04 5.437-.9 5.56-3.926.057-1.326-.467-2.062-.918-2.44zm-3.77 4.638c.4-1.078.638-2.292.767-3.625.564-.094 1.533-.153 2.023.26.09.078.373.32.338 1.097-.062 1.57-1.916 2.091-3.127 2.268zM10.846 11s4.333-.283 2.345-3.512C11.601 4.89 11.965 3.374 14 2c0 0-6.675 1.5-2.78 6.162 1.427 2.025-.374 2.838-.374 2.838z"/>
        <path d="M14 10s3.237-.566 1.475-2.73c-.636-.937.242-1.27.242-1.27s-2.083.052-1.205 1.542c.705 1.194.496 1.873-.512 2.458z"/>
    </g>
</svg>
