<svg xmlns="http://www.w3.org/2000/svg" width="28" height="28" viewBox="0 0 28 28">
    <g fill="#3ACAAA" fill-rule="evenodd">
        <path d="M21.166 8.145c.361 0 .463-.468.138-.61L8.607 2.13c-.773-.332-1.682 0-2.027.746L2.134 12.45c-.346.741 0 1.615.777 1.947l2.56 1.063c.32.137.687-.087.687-.424V10.97c0-1.556 1.316-2.82 2.936-2.82h12.072v-.005z"/>
        <path d="M24.425 9.5h-15.6c-.87 0-1.575.672-1.575 1.5v10.5c0 .828.705 1.5 1.575 1.5h2.095a5.192 5.192 0 0 1 .02-1.903H9.252v-5.026h14.75v5.021H22.31a5.192 5.192 0 0 1 .02 1.903h2.095c.87 0 1.575-.672 1.575-1.5V11c0-.83-.705-1.501-1.575-1.501zM9.252 12.977h14.75v-1.574H9.253v1.574z"/>
        <path d="M16.625 18.5c-2.278 0-4.125 1.68-4.125 3.75 0 2.07 1.847 3.75 4.125 3.75s4.125-1.68 4.125-3.75c0-2.07-1.847-3.75-4.125-3.75zm1.186 5.229c-.178.2-.415.334-.687.4-.121.03-.174.087-.168.201.005.11 0 .22 0 .334 0 .1-.058.153-.163.153a5.482 5.482 0 0 1-.394 0c-.115 0-.168-.062-.168-.163v-.243c0-.176-.01-.186-.2-.215a2.655 2.655 0 0 1-.697-.18c-.173-.077-.194-.115-.142-.282.037-.124.074-.248.116-.368.047-.143.089-.157.236-.09.247.114.504.181.777.21.173.019.346.004.509-.062.304-.12.351-.44.094-.63a1.095 1.095 0 0 0-.288-.153c-.268-.105-.546-.186-.793-.324-.41-.22-.666-.525-.635-.978.032-.51.352-.826.866-.997.21-.072.215-.067.215-.268v-.205c.005-.153.032-.176.2-.181h.152c.357 0 .357 0 .357.324 0 .23 0 .23.252.263.188.029.372.076.55.148.1.038.137.1.106.195-.042.139-.084.282-.137.415-.047.13-.094.148-.23.091a1.884 1.884 0 0 0-.872-.157.76.76 0 0 0-.231.043c-.262.104-.31.372-.084.534.116.08.242.143.378.195.236.086.467.172.693.287.692.348.887 1.154.388 1.703z"/>
    </g>
</svg>
