<svg xmlns="http://www.w3.org/2000/svg" xmlns:xlink="http://www.w3.org/1999/xlink" width="30" height="30" viewBox="0 0 30 30">
    <defs>
        <path id="a" d="M0 0h28v27H0z"/>
    </defs>
    <g fill="none" fill-rule="evenodd" transform="translate(1 2)">
        <mask id="b" fill="#fff">
            <use xlink:href="#a"/>
        </mask>
        <path fill="#FFF" d="M21.203 14.129a.736.736 0 0 0 0-1.056.738.738 0 0 0-1.056 0l-5.402 5.348V.75c0-.413-.33-.751-.743-.751a.756.756 0 0 0-.758.75v17.67l-5.391-5.347a.749.749 0 0 0-1.065 0 .734.734 0 0 0 0 1.056l6.68 6.626a.767.767 0 0 0 1.064 0l6.67-6.626zm5.293 4.85c0-.412.331-.737.747-.737s.757.325.757.737v7.274c0 .41-.34.747-.757.747H.748A.747.747 0 0 1 0 26.253v-7.274c0-.412.331-.737.748-.737.412 0 .753.325.753.737v6.532h24.995V18.98z" mask="url(#b)"/>
    </g>
</svg>
