<svg xmlns="http://www.w3.org/2000/svg" width="28" height="28" viewBox="0 0 28 28">
    <g fill="#E4375C" fill-rule="evenodd">
        <path d="M20.628 19a.357.357 0 0 1-.254-.107l-4.258-4.217a.413.413 0 0 1-.018-.554.358.358 0 0 1 .525-.014l4.261 4.217a.407.407 0 0 1 .015.553.363.363 0 0 1-.271.122zM6.373 19a.361.361 0 0 1-.271-.122.407.407 0 0 1 .014-.553l4.259-4.217a.356.356 0 0 1 .523.014.408.408 0 0 1-.014.554l-4.259 4.217a.354.354 0 0 1-.252.107z"/>
        <path d="M24.065 23H3.935A1.932 1.932 0 0 1 2 21.072V7.928C2 6.863 2.869 6 3.935 6h20.13C25.13 6 26 6.863 26 7.928v13.144C26 22.138 25.13 23 24.065 23zM3.935 6.772c-.639 0-1.16.52-1.16 1.156v13.144c0 .64.521 1.156 1.16 1.156h20.13c.643 0 1.16-.516 1.16-1.156V7.928c0-.636-.517-1.156-1.16-1.156H3.935z"/>
        <path d="M13.507 17a2.027 2.027 0 0 1-1.422-.569L2.133 6.76a.468.468 0 0 1-.037-.611.361.361 0 0 1 .548-.042l9.948 9.671a1.34 1.34 0 0 0 1.828 0l9.935-9.655a.363.363 0 0 1 .55.042.465.465 0 0 1-.038.608l-9.937 9.654a2.026 2.026 0 0 1-1.423.573z"/>
    </g>
</svg>
