<svg xmlns="http://www.w3.org/2000/svg" width="30" height="30" viewBox="0 0 30 30">
    <path fill="#FFF" fill-rule="nonzero" d="M21.435 1.006L17.837 1c-4.042 0-6.654 2.705-6.654 6.89v3.178H7.566a.568.568 0 0 0-.566.571v4.604c0 .315.253.57.566.57h3.617V28.43c0 .316.253.571.566.571h4.72a.568.568 0 0 0 .565-.57V16.812h4.23a.568.568 0 0 0 .566-.57l.001-4.604a.574.574 0 0 0-.165-.404.563.563 0 0 0-.4-.167h-4.232V8.375c0-1.295.306-1.952 1.977-1.952h2.424A.568.568 0 0 0 22 5.85V1.577a.569.569 0 0 0-.565-.571z"/>
</svg>
