<svg xmlns="http://www.w3.org/2000/svg" width="263" height="42" viewBox="0 0 263 42">
    <g fill="none" fill-rule="evenodd">
        <path fill="#EBEBEB" d="M170.519 6.956c4.67-2.608 8.04-2.608 10.11 0 3.107 3.912 9.303 4.042 3.107 7.93-4.13 2.592-7.291 3.302-9.482 2.131-3.6.078-5.639-1.007-6.119-3.255-.48-2.248.315-4.517 2.384-6.806zM222.78 12.064c3.302-1.844 5.685-1.844 7.15 0 2.196 2.766 6.576 2.858 2.196 5.606-2.92 1.833-5.155 2.335-6.704 1.507-2.545.055-3.987-.712-4.326-2.301-.34-1.59.222-3.194 1.685-4.812zM247.78 1.383c3.302-1.844 5.685-1.844 7.15 0 2.196 2.766 6.576 2.858 2.196 5.607-2.92 1.832-5.155 2.334-6.704 1.506-2.545.056-3.987-.711-4.326-2.301-.34-1.59.222-3.194 1.685-4.812zM119.78 9.383c3.302-1.844 5.685-1.844 7.15 0 2.196 2.766 6.576 2.858 2.196 5.607-2.92 1.832-5.155 2.334-6.704 1.506-2.545.056-3.987-.711-4.326-2.301-.34-1.59.222-3.194 1.685-4.812z"/>
        <path fill="#CBCBCB" d="M262.037 9.905h-7.775v18.73h-7.927V3.926h-7.826v12.772h-8.046v5.909h-6.022v-8.387l-4.092-6.333-4.283 6.333v5.709h-5.958V2.63h-7.813v26.004h-7.832v-5.354h-7.226v13.187h-7.894V10.036h-8.058V30.85h-7.787V4.042l-9.52 12.655v19.318h-7.453V1.203h-7.645v20.413h-7.478v14.45h-8.577v2.971H.185v2.303H262.29"/>
    </g>
</svg>
