<svg xmlns="http://www.w3.org/2000/svg" width="28" height="28" viewBox="0 0 28 28">
    <path fill="#FFF" fill-rule="nonzero" d="M10.987 20.02a8.907 8.907 0 0 0 5.83-2.16l7.902 7.92a.747.747 0 0 0 1.06.001.75.75 0 0 0 .002-1.06l-7.908-7.927c2.96-3.535 2.788-8.83-.53-12.154A8.92 8.92 0 0 0 10.987 2a8.92 8.92 0 0 0-6.358 2.64c-3.504 3.513-3.504 9.228 0 12.74a8.926 8.926 0 0 0 6.359 2.64zM5.69 5.7a7.43 7.43 0 0 1 5.296-2.2c2 0 3.881.78 5.296 2.2 2.922 2.928 2.922 7.693 0 10.622a7.43 7.43 0 0 1-5.296 2.199c-2 0-3.88-.781-5.296-2.2-2.921-2.929-2.921-7.693 0-10.622z"/>
</svg>
