<svg xmlns="http://www.w3.org/2000/svg" width="30" height="30" viewBox="0 0 30 30">
    <path fill="#555" fill-rule="nonzero" d="M28.413 10.333h-4.109V2.167h4.109A.587.587 0 0 0 29 1.583.587.587 0 0 0 28.413 1h-4.696c-.017 0-.035.006-.052.012-.036.006-.07.011-.106.023a.652.652 0 0 0-.17.082h-.006c-.03.017-.059.04-.088.064l-4.631 3.453c-.024.012-.041.03-.065.047L13.95 8.146c-.011.011-.029.017-.04.035l-4.673 3.482c-.006.006-.017.012-.023.018l-4.696 3.494-2.283 1.697a.583.583 0 0 0-.118.817c.194.257.564.31.822.117l1.409-1.05v7.577H2.587a.587.587 0 0 0-.587.584v3.5c0 .32.264.583.587.583h25.826a.587.587 0 0 0 .587-.583v-17.5a.587.587 0 0 0-.587-.584zm-8.804-4.946l3.521-2.625v7.571h-.587a.587.587 0 0 0-.587.584v2.916H19.61V5.387zm-4.696 3.5l3.522-2.625v7.571h-.587a.587.587 0 0 0-.587.584v2.333h-2.348V8.887zm-4.696 3.494l3.522-2.625v6.994h-1.174a.587.587 0 0 0-.587.583v3.5h-1.76v-8.452zm-4.695 3.5l3.521-2.625v7.577H7.87a.587.587 0 0 0-.587.584v2.916H5.522v-8.452zm22.304 11.952H3.174V25.5H7.87a.587.587 0 0 0 .586-.583V22h4.11a.587.587 0 0 0 .586-.583v-3.5h4.696a.587.587 0 0 0 .587-.584V15h4.108a.587.587 0 0 0 .587-.583V11.5h4.696v16.333z"/>
</svg>
