<svg xmlns="http://www.w3.org/2000/svg" width="28" height="28" viewBox="0 0 28 28">
    <g fill="#CCC" fill-rule="evenodd">
        <path d="M25.353 22.36L4.967 2.023h-.859l-.175.445c-.462 1.172-.66 2.372-.571 3.468.1 1.25.577 2.332 1.376 3.13l8.575 8.553 1.131-1.128 7.927 8.843c.789.787 2.146.833 2.982 0a2.102 2.102 0 0 0 0-2.974zM9.34 15.638l-6.716 6.7a2.102 2.102 0 0 0 0 2.974c.78.779 2.131.848 2.981 0l6.716-6.7-2.982-2.974zM25.016 5.938l-3.774 3.774-.985-.985 3.774-3.774-.985-.984-3.773 3.774-.985-.985 3.774-3.774L21.078 2l-4.923 4.922a3.476 3.476 0 0 0-1.013 2.252 2 2 0 0 1-.142.628L18.197 13a2 2 0 0 1 .63-.143c.849-.05 1.648-.41 2.25-1.012L26 6.922l-.984-.984z"/>
    </g>
</svg>
