<svg xmlns="http://www.w3.org/2000/svg" width="30" height="30" viewBox="0 0 30 30">
    <path fill="#A6A6A6" fill-rule="nonzero" d="M15 1C7.28 1 1 7.28 1 15s6.28 14 14 14 14-6.28 14-14S22.72 1 15 1zm12.96 16.07l-1.7-2.817 1.174-3.448a13.067 13.067 0 0 1 .526 6.265zm-3.306 6.81a.435.435 0 0 0-.179-.008l-4.234.679a.434.434 0 0 0-.054-.151l-2.407-4.012 3.892-5.994h3.688c.01.047.02.094.046.137l2.29 3.796c-.55 2.102-1.612 4-3.042 5.553zm-4.412 1.557l3.363-.54a13.106 13.106 0 0 1-5.121 2.755l1.758-2.215zM6.534 4.98a13.063 13.063 0 0 1 8.15-3.098.43.43 0 0 0 .105.164l2.417 2.281-.956 3.569-6.228 2.39c-.023-.018-.041-.04-.068-.054l-3.88-2.057.46-3.195zm11.26-1.302L15.92 1.911c1.713.12 3.337.566 4.808 1.282l-2.934.486zm-7.2 14.268l-.357-6.804L16.6 8.7l4.289 5.296-3.711 5.715-6.583-1.764zm16.352-8.374c-.014.024-.032.043-.04.07l-1.32 3.876h-3.958l-4.492-5.547.924-3.45 3.618-.6a.428.428 0 0 0 .199-.095 13.212 13.212 0 0 1 5.069 5.746zM5.51 5.947l-.35 2.433-2.341 1.739a13.14 13.14 0 0 1 2.691-4.172zm-3.174 5.609c.02-.01.04-.017.057-.03L5.78 9.01 9.35 10.9l.388 7.41c0 .01.006.02.007.032L6.37 21.68c-.03.029-.046.064-.065.097L3.07 20.39c-.012-.005-.025-.004-.037-.008a13.083 13.083 0 0 1-.697-8.827zm1.322 10.038l2.37 1.016 1.81 3.381a13.222 13.222 0 0 1-4.18-4.397zm5.582 5.197c-.008-.028-.01-.057-.025-.084L6.89 22.365c.033-.018.067-.035.096-.063l3.512-3.475 6.347 1.701 2.593 4.322a.434.434 0 0 0 .077.095l-2.384 3.005a13.044 13.044 0 0 1-7.89-1.159z"/>
</svg>
