<svg xmlns="http://www.w3.org/2000/svg" width="169" height="235" viewBox="0 0 169 235">
    <g fill="none" fill-rule="evenodd" transform="translate(1 1)">
        <path fill="#555" stroke="#555" d="M84.059 219L152 131H15z"/>
        <circle cx="83.5" cy="83.5" r="83.5" fill="#FFF" stroke="#555"/>
        <text fill="#FFF" font-family="HelveticaNeue-Bold, Helvetica Neue" font-size="24" font-weight="bold" letter-spacing=".081">
            <tspan x="70.075" y="193">02</tspan>
        </text>
        <path stroke="#555" stroke-linecap="square" stroke-width="4" d="M65 232h37"/>
        <g fill-rule="nonzero">
            <path fill="#E4375C" d="M88.5 100c2.481 0 4.5-2.019 4.5-4.5S90.981 91 88.5 91a4.505 4.505 0 0 0-4.5 4.5c0 2.481 2.019 4.5 4.5 4.5zM87.937 101.148c-.046-.099-.114-.148-.182-.148h-.51c-.068 0-.136.05-.182.148a.826.826 0 0 0-.031.544l.272.802-.127 2.102.25 1.306c.025.13.12.13.145 0l.251-1.306-.127-2.102.272-.802a.825.825 0 0 0-.03-.544z"/>
            <path fill="#E4375C" d="M81.593 111h12.814a.601.601 0 0 0 .593-.608v-5.478a3.72 3.72 0 0 0-2.51-3.526l-1.17-.369a.418.418 0 0 0-.519.265l-2.8 7.887-2.802-7.887a.422.422 0 0 0-.519-.265l-1.161.366a3.724 3.724 0 0 0-2.519 3.53v5.477c0 .335.266.608.593.608z"/>
            <path fill="#555" d="M75.5 103c2.481 0 4.5-2.019 4.5-4.5S77.981 94 75.5 94a4.505 4.505 0 0 0-4.5 4.5c0 2.481 2.019 4.5 4.5 4.5z"/>
            <path fill="#555" d="M82.903 112.658h-3.33v-6.764c0-2.15-1.695-3.894-3.786-3.894-2.092 0-3.787 1.743-3.787 3.894v9.188c0 2.065 1.628 3.739 3.635 3.739h4.32v6.122c0 .584.46 1.057 1.028 1.057h3.99c.567 0 1.027-.473 1.027-1.057v-9.1c0-1.76-1.387-3.185-3.097-3.185zM101.5 103c2.481 0 4.5-2.019 4.5-4.5s-2.019-4.5-4.5-4.5a4.505 4.505 0 0 0-4.5 4.5c0 2.481 2.019 4.5 4.5 4.5z"/>
            <path fill="#555" d="M101.213 102c-2.091 0-3.786 1.743-3.786 3.894v6.764h-3.33c-1.71 0-3.097 1.426-3.097 3.185v9.1c0 .584.46 1.057 1.028 1.057h3.989c.567 0 1.027-.473 1.027-1.057v-6.122h4.32c2.008 0 3.636-1.674 3.636-3.739v-9.188c0-2.15-1.695-3.894-3.787-3.894z"/>
        </g>
        <path fill="#555" fill-rule="nonzero" d="M79.56 50H38.44C35.975 50 34 52.012 34 54.405v25.339c0 2.447 2.029 4.405 4.44 4.405h28.345l6.415 6.416c.274.272.603.435.986.435a1.41 1.41 0 0 0 1.426-1.414V84.15h3.947c2.467 0 4.441-2.012 4.441-4.405v-25.34C84 51.959 81.971 50 79.56 50zM44.745 71.805c-2.248 0-4.112-1.849-4.112-4.078 0-2.23 1.864-4.078 4.112-4.078 2.247 0 4.111 1.848 4.111 4.078a4.09 4.09 0 0 1-4.111 4.078zm14.418 0c-2.247 0-4.111-1.849-4.111-4.078 0-2.23 1.864-4.078 4.111-4.078 2.248 0 4.112 1.848 4.112 4.078 0 2.23-1.864 4.078-4.112 4.078zm14.365 0c-2.248 0-4.112-1.849-4.112-4.078 0-2.23 1.864-4.078 4.112-4.078 2.247 0 4.111 1.848 4.111 4.078 0 2.23-1.864 4.078-4.111 4.078z"/>
        <path fill="#555" d="M37 60h43v15H37zM97 60h33v15H97z"/>
        <path fill="#555" fill-rule="nonzero" d="M98.375 56h31.25C131.5 56 133 57.521 133 59.33v19.16c0 1.85-1.542 3.33-3.375 3.33h-21.542l-4.875 4.851c-.208.206-.458.329-.75.329a1.069 1.069 0 0 1-1.083-1.069V81.82h-3C96.5 81.82 95 80.298 95 78.49V59.33c0-1.85 1.542-3.33 3.375-3.33zm26.458 16.487c1.709 0 3.125-1.398 3.125-3.084 0-1.685-1.416-3.083-3.125-3.083-1.708 0-3.125 1.398-3.125 3.083 0 1.686 1.375 3.084 3.125 3.084zm-10.958 0c1.708 0 3.125-1.398 3.125-3.084 0-1.685-1.417-3.083-3.125-3.083s-3.125 1.398-3.125 3.083c0 1.686 1.417 3.084 3.125 3.084zm-10.917 0c1.709 0 3.125-1.398 3.125-3.084 0-1.685-1.416-3.083-3.125-3.083-1.708 0-3.125 1.398-3.125 3.083 0 1.686 1.417 3.084 3.125 3.084z"/>
        <g fill="#FFF" fill-rule="nonzero">
            <path d="M51 76.502s-.02.498.468.498l5.625-.007.008-4.597s-.079-.757.659-.757h2.334c.872 0 .818.757.818.757l-.01 4.583h5.507c.619 0 .59-.62.59-.62v-8.475L59.24 61 51 67.884v8.618z"/>
            <path d="M48 67.403s.721 1.343 2.293 0l9.396-8.032 8.81 7.982c1.82 1.327 2.501 0 2.501 0L59.689 57 48 67.403zM68 59h-2l.008 2.357L68 63z"/>
        </g>
        <path fill="#E4375C" fill-rule="nonzero" d="M122.262 64.346l-1.504-1.472a1.035 1.035 0 0 0-.752-.303c-.295 0-.546.101-.752.303l-7.256 7.11-3.251-3.192a1.035 1.035 0 0 0-.752-.303c-.295 0-.546.101-.753.303l-1.504 1.472a.991.991 0 0 0-.31.736c0 .289.104.534.31.736l4.004 3.918 1.504 1.472c.206.202.457.303.752.303s.546-.102.752-.303l1.504-1.472 8.008-7.836a.992.992 0 0 0 .31-.736.991.991 0 0 0-.31-.736z"/>
    </g>
</svg>
