<svg xmlns="http://www.w3.org/2000/svg" width="169" height="235" viewBox="0 0 169 235">
    <g fill="none" fill-rule="evenodd" transform="translate(1 1)">
        <path fill="#555" stroke="#555" d="M84.059 219L152 131H15z"/>
        <circle cx="83.5" cy="83.5" r="83.5" fill="#FFF" stroke="#555"/>
        <text fill="#FFF" font-family="HelveticaNeue-Bold, Helvetica Neue" font-size="24" font-weight="bold" letter-spacing=".081">
            <tspan x="70.075" y="193">03</tspan>
        </text>
        <path stroke="#555" stroke-linecap="square" stroke-width="4" d="M65 232h37"/>
        <g fill-rule="nonzero">
            <path fill="#555" d="M104.613 116h-44.59c-5.839 0-10.573-4.753-10.573-10.616V60.616C49.45 54.753 54.184 50 60.023 50h44.59c5.839 0 10.573 4.753 10.573 10.616v44.768c0 5.863-4.734 10.616-10.573 10.616z"/>
            <path fill="#FFF" d="M103.057 67.77H62.015c-1.259 0-2.28-.568-2.28-1.27 0-.702 1.021-1.27 2.28-1.27h41.042c1.258 0 2.28.568 2.28 1.27 0 .702-1.022 1.27-2.28 1.27zM103.057 85.538H62.015c-1.259 0-2.28-.567-2.28-1.269S60.756 83 62.015 83h41.042c1.258 0 2.28.567 2.28 1.27 0 .701-1.022 1.268-2.28 1.268zM103.057 103.308H62.015c-1.259 0-2.28-.568-2.28-1.27 0-.701 1.021-1.269 2.28-1.269h41.042c1.258 0 2.28.568 2.28 1.27 0 .701-1.022 1.269-2.28 1.269z"/>
            <g>
                <path fill="#EDDCC7" d="M91.32 107.928l-.01.01-2.523 9.252 5.898-5.898z"/>
                <path fill="#FF5F81" d="M115.753 90.224l-1.582-1.583a2.52 2.52 0 0 0-3.563 0l-4.547 4.546 3.365 3.365 6.327-6.328z"/>
                <path fill="#FF5F81" d="M106.061 93.186l3.365 3.365-14.74 14.74-3.365-3.364z"/>
                <path fill="#D6C4B1" d="M98.49 115.117l.01-.01-3.815-3.815-5.898 5.898-.169.62z"/>
                <path fill="#E4375C" d="M113.24 100.368l4.547-4.547a2.52 2.52 0 0 0 0-3.563l-2.034-2.033-6.327 6.327 3.814 3.816z"/>
                <path fill="#E4375C" d="M98.5 115.109l-3.816-3.815 14.74-14.74 3.816 3.814z"/>
                <path fill="#5E5E5E" d="M87.721 119.976a1.268 1.268 0 0 1-.897-2.167l2.8-2.8a1.268 1.268 0 1 1 1.796 1.794l-2.802 2.801a1.26 1.26 0 0 1-.897.372z"/>
            </g>
        </g>
    </g>
</svg>
