<svg xmlns="http://www.w3.org/2000/svg" width="24" height="24" viewBox="0 0 24 24">
    <g fill="none" fill-rule="evenodd">
        <circle cx="12" cy="12" r="12" fill="#555"/>
        <g fill="#FFF">
            <path d="M12.25 12c.964 0 1.75-.785 1.75-1.75s-.786-1.75-1.75-1.75c-.965 0-1.75.785-1.75 1.75S11.285 12 12.25 12zm0-3a1.25 1.25 0 0 1 0 2.5 1.25 1.25 0 0 1 0-2.5z"/>
            <path d="M15.851 13.4h-1.404l.598-.88c1.128-1.534.965-4.056-.35-5.397A3.7 3.7 0 0 0 12.035 6a3.7 3.7 0 0 0-2.66 1.123c-1.316 1.341-1.48 3.863-.355 5.39l.603.886H8.149L6 18h12l-2.149-4.6zM9.34 12.28c-1.02-1.387-.873-3.665.314-4.874A3.312 3.312 0 0 1 12.035 6.4c.9 0 1.746.358 2.383 1.007 1.187 1.21 1.333 3.488.309 4.88l-2.692 3.962L10.1 13.4l-.76-1.12zm-.942 1.52h1.497l2.14 3.151 2.14-3.151h1.43l1.774 3.8H6.622l1.775-3.8z"/>
        </g>
    </g>
</svg>
