<svg xmlns="http://www.w3.org/2000/svg" width="169" height="235" viewBox="0 0 169 235">
    <g fill="none" fill-rule="evenodd" transform="translate(1 1)">
        <path fill="#555" stroke="#555" d="M84.059 219L152 131H15z"/>
        <circle cx="83.5" cy="83.5" r="83.5" fill="#FFF" stroke="#555"/>
        <text fill="#FFF" font-family="HelveticaNeue-Bold, Helvetica Neue" font-size="24" font-weight="bold" letter-spacing=".081">
            <tspan x="70.075" y="193">05</tspan>
        </text>
        <path stroke="#555" stroke-linecap="square" stroke-width="4" d="M65 232h37"/>
        <g fill-rule="nonzero">
            <path fill="#555" d="M104.613 116h-44.59c-5.839 0-10.573-4.753-10.573-10.616V60.616C49.45 54.753 54.184 50 60.023 50h44.59c5.839 0 10.573 4.753 10.573 10.616v44.768c0 5.863-4.734 10.616-10.573 10.616z"/>
            <path fill="#FFF" d="M105.073 67.77H82.318a1.266 1.266 0 0 1-1.264-1.27c0-.702.566-1.27 1.264-1.27h22.755c.697 0 1.264.568 1.264 1.27 0 .702-.567 1.27-1.264 1.27zM105.073 85.538H82.318a1.266 1.266 0 0 1-1.264-1.269c0-.702.566-1.269 1.264-1.269h22.755c.697 0 1.264.567 1.264 1.27 0 .701-.567 1.268-1.264 1.268zM105.073 103.308H82.318a1.266 1.266 0 0 1-1.264-1.27c0-.701.566-1.269 1.264-1.269h22.755c.697 0 1.264.568 1.264 1.27 0 .701-.567 1.269-1.264 1.269z"/>
            <path fill="#E4375C" d="M64.71 71.577c-.265 0-.531-.083-.759-.254l-5.778-4.352a1.271 1.271 0 0 1-.253-1.776 1.262 1.262 0 0 1 1.77-.254l4.831 3.638 7.899-9.25a1.26 1.26 0 0 1 1.782-.137 1.27 1.27 0 0 1 .137 1.788L65.67 71.134c-.25.292-.604.443-.96.443zM64.71 89.346c-.265 0-.531-.082-.759-.254l-5.778-4.352a1.271 1.271 0 0 1-.253-1.776 1.262 1.262 0 0 1 1.77-.253l4.831 3.637 7.899-9.25a1.26 1.26 0 0 1 1.782-.137 1.27 1.27 0 0 1 .137 1.788L65.67 88.903c-.25.292-.604.443-.96.443zM64.71 108.383c-.265 0-.531-.082-.759-.253l-5.778-4.353a1.271 1.271 0 0 1-.253-1.775 1.262 1.262 0 0 1 1.77-.254l4.831 3.637 7.899-9.248a1.257 1.257 0 0 1 1.782-.138 1.27 1.27 0 0 1 .137 1.789L65.67 107.94c-.25.292-.604.443-.96.443z"/>
            <g>
                <path fill="#EDDCC7" d="M91.32 107.928l-.01.01-2.523 9.252 5.898-5.898z"/>
                <path fill="#FF5F81" d="M115.753 90.224l-1.582-1.583a2.52 2.52 0 0 0-3.563 0l-4.547 4.546 3.365 3.365 6.327-6.328z"/>
                <path fill="#FF5F81" d="M106.061 93.186l3.365 3.365-14.74 14.74-3.365-3.364z"/>
                <path fill="#D6C4B1" d="M98.49 115.117l.01-.01-3.815-3.815-5.898 5.898-.169.62z"/>
                <path fill="#E4375C" d="M113.24 100.368l4.547-4.547a2.52 2.52 0 0 0 0-3.563l-2.034-2.033-6.327 6.327 3.814 3.816z"/>
                <path fill="#E4375C" d="M98.5 115.109l-3.816-3.815 14.74-14.74 3.816 3.814z"/>
                <path fill="#5E5E5E" d="M87.721 119.976a1.268 1.268 0 0 1-.897-2.167l2.8-2.8a1.268 1.268 0 1 1 1.796 1.794l-2.802 2.801a1.26 1.26 0 0 1-.897.372z"/>
            </g>
        </g>
    </g>
</svg>
