<svg xmlns="http://www.w3.org/2000/svg" width="24" height="24" viewBox="0 0 24 24">
    <g fill="none" fill-rule="evenodd">
        <circle cx="12" cy="12" r="12" fill="#555"/>
        <g fill="#FFF">
            <path d="M15.314 14.5a.178.178 0 0 1-.127-.053l-2.129-2.109a.206.206 0 0 1-.01-.277.179.179 0 0 1 .263-.007l2.131 2.108a.204.204 0 0 1 .007.277.182.182 0 0 1-.135.061zM8.186 14.5a.18.18 0 0 1-.135-.061.203.203 0 0 1 .007-.277l2.13-2.108a.178.178 0 0 1 .261.007.204.204 0 0 1-.007.277l-2.13 2.109a.177.177 0 0 1-.126.053z"/>
            <path d="M17.033 16.5H6.967A.966.966 0 0 1 6 15.536V8.964C6 8.43 6.434 8 6.967 8h10.066c.532 0 .967.431.967.964v6.572a.966.966 0 0 1-.967.964zM6.967 8.386a.58.58 0 0 0-.58.578v6.572c0 .32.261.578.58.578h10.066c.32 0 .58-.258.58-.578V8.964a.579.579 0 0 0-.58-.578H6.967z"/>
            <path d="M11.754 13.5c-.26 0-.517-.094-.711-.284L6.067 8.38a.234.234 0 0 1-.02-.306.18.18 0 0 1 .275-.02l4.974 4.835a.67.67 0 0 0 .914 0l4.968-4.828a.182.182 0 0 1 .274.021.232.232 0 0 1-.019.304l-4.968 4.827a1.013 1.013 0 0 1-.711.287z"/>
        </g>
    </g>
</svg>
