<svg xmlns="http://www.w3.org/2000/svg" xmlns:xlink="http://www.w3.org/1999/xlink" width="24" height="24" viewBox="0 0 24 24">
    <defs>
        <path id="a" d="M0 0h12v12H0z"/>
    </defs>
    <g fill="none" fill-rule="evenodd">
        <circle cx="12" cy="12" r="12" fill="#555"/>
        <g transform="translate(6 6)">
            <mask id="b" fill="#fff">
                <use xlink:href="#a"/>
            </mask>
            <path fill="#FFF" d="M9.68 7.355c-.25-.26-.553-.399-.874-.399-.318 0-.623.136-.885.397l-.817.811-.2-.103c-.093-.046-.18-.09-.256-.136-.766-.485-1.462-1.116-2.13-1.933-.323-.407-.54-.75-.698-1.097.212-.193.409-.394.6-.587l.218-.22c.543-.54.543-1.241 0-1.782l-.707-.703c-.08-.08-.163-.163-.24-.245-.156-.16-.319-.325-.487-.48C2.953.632 2.653.5 2.337.5c-.316 0-.621.131-.88.379l-.005.005-.88.883c-.331.33-.52.732-.561 1.198-.062.753.16 1.453.33 1.912.42 1.126 1.046 2.169 1.98 3.287a12.17 12.17 0 0 0 4.055 3.161c.596.28 1.39.613 2.278.67.054.002.11.005.163.005.597 0 1.1-.214 1.493-.639.002-.005.007-.008.01-.013.135-.162.29-.309.453-.466.111-.106.225-.216.336-.332.257-.266.391-.575.391-.892 0-.32-.137-.626-.398-.883L9.68 7.355zm.927 2.713c-.002 0-.002.003 0 0-.1.108-.204.206-.315.314-.169.16-.34.327-.5.515-.261.279-.57.41-.973.41-.039 0-.08 0-.119-.002-.768-.05-1.483-.348-2.018-.603a11.489 11.489 0 0 1-3.82-2.978C1.98 6.664 1.39 5.686 1 4.634c-.24-.64-.328-1.14-.29-1.612a1.18 1.18 0 0 1 .357-.765l.883-.879c.127-.118.261-.182.393-.182.163 0 .295.097.378.18l.008.008c.158.146.308.298.466.46l.245.25.707.704c.274.273.274.526 0 .799-.075.074-.148.149-.223.221-.217.222-.424.428-.65.629-.004.005-.01.007-.012.013-.223.221-.181.438-.135.584l.008.024c.184.443.443.86.836 1.357l.002.003c.715.876 1.468 1.558 2.298 2.081.106.067.215.121.319.173.093.046.18.09.256.137l.03.018c.089.043.172.064.257.064.215 0 .35-.134.393-.178l.885-.88c.088-.089.228-.194.391-.194.16 0 .293.1.373.188l1.43 1.425c.267.262.267.533.003.806zM6.772 2.656a3.109 3.109 0 0 1 1.692.878c.465.466.767 1.05.877 1.691a.329.329 0 0 0 .326.275c.02 0 .037-.003.057-.005a.331.331 0 0 0 .272-.382 3.781 3.781 0 0 0-1.062-2.047 3.78 3.78 0 0 0-2.046-1.062.333.333 0 0 0-.383.27.327.327 0 0 0 .267.382zM11.995 5.118a6.215 6.215 0 0 0-1.745-3.367A6.211 6.211 0 0 0 6.884.005a.33.33 0 0 0-.38.27c-.029.18.09.35.272.381a5.56 5.56 0 0 1 3.009 1.56 5.548 5.548 0 0 1 1.559 3.01.328.328 0 0 0 .325.274.324.324 0 0 0 .326-.382z" mask="url(#b)"/>
        </g>
    </g>
</svg>
