<svg xmlns="http://www.w3.org/2000/svg" width="28" height="28" viewBox="0 0 28 28">
    <g fill="#CCC" fill-rule="nonzero">
        <path d="M25.402 8.204v13.079A2.15 2.15 0 0 0 27 19.207V10.28a2.15 2.15 0 0 0-1.598-2.076zM21.655 6.472h-.503a2.15 2.15 0 0 0-2.147 2.147v12.248a2.15 2.15 0 0 0 2.147 2.148h.503a2.15 2.15 0 0 0 2.147-2.148V8.62a2.15 2.15 0 0 0-2.147-2.147zM10.595 12.085h6.81v5.239h-6.81zM1 9.855v8.928c0 .994.68 1.832 1.598 2.075V7.78A2.15 2.15 0 0 0 1 9.855zM6.848 6.048h-.503a2.15 2.15 0 0 0-2.147 2.147v12.248a2.15 2.15 0 0 0 2.147 2.147h.503a2.15 2.15 0 0 0 2.147-2.147V8.195a2.15 2.15 0 0 0-2.147-2.147z"/>
    </g>
</svg>
