<svg xmlns="http://www.w3.org/2000/svg" xmlns:xlink="http://www.w3.org/1999/xlink" width="95" height="95" viewBox="0 0 95 95">
    <defs>
        <path id="a" d="M0 24.52h92.906V.1H0z"/>
    </defs>
    <g fill="none" fill-rule="evenodd">
        <path fill="#E3395E" d="M1 31v25h5.377V45.842h10.006V56h5.394V37.25h-5.394v3.925H6.377V31zM25.734 48.308V37h2.253v4.311h4.22V37h2.253v11.308h-2.253V43.26h-4.22v5.048z"/>
        <g transform="translate(1 31)">
            <path fill="#E3395E" d="M42.477 14.443c.511-.636.767-1.541.767-2.715 0-1.169-.256-2.072-.767-2.711-.511-.639-1.202-.958-2.072-.958-.87 0-1.565.318-2.084.954-.518.637-.777 1.542-.777 2.715 0 1.174.259 2.079.777 2.715.519.636 1.213.954 2.084.954.87 0 1.56-.318 2.072-.954m1.374 1.584c-.795.81-1.943 1.216-3.446 1.216-1.503 0-2.652-.406-3.446-1.216-1.066-.995-1.599-2.428-1.599-4.299 0-1.909.533-3.342 1.599-4.298.794-.811 1.943-1.216 3.446-1.216 1.503 0 2.651.405 3.446 1.216 1.06.956 1.59 2.39 1.59 4.298 0 1.871-.53 3.304-1.59 4.299M48.702 13.736c.068.476.201.832.4 1.068.365.428.989.643 1.873.643.529 0 .959-.057 1.29-.17.625-.217.939-.62.939-1.209 0-.344-.154-.61-.46-.799-.307-.183-.794-.346-1.46-.487l-1.14-.248c-1.118-.245-1.887-.511-2.305-.799-.71-.48-1.063-1.232-1.063-2.255 0-.933.346-1.709 1.04-2.326.693-.618 1.711-.926 3.055-.926 1.121 0 2.078.29 2.87.873.793.582 1.208 1.427 1.246 2.534h-2.112c-.039-.626-.321-1.072-.848-1.336-.351-.174-.787-.261-1.31-.261-.58 0-1.043.113-1.389.339-.346.226-.52.542-.52.947 0 .373.172.65.513.835.22.122.685.266 1.397.43l1.846.432c.808.189 1.415.44 1.818.757.627.49.94 1.2.94 2.128 0 .952-.37 1.742-1.113 2.371-.743.63-1.792.944-3.148.944-1.385 0-2.474-.31-3.267-.93-.793-.619-1.19-1.47-1.19-2.555h2.098z"/>
            <mask id="b" fill="#fff">
                <use xlink:href="#a"/>
            </mask>
            <path fill="#E3395E" d="M56.685 17.213h2.289V6.29h-2.289zM64.128 13.086h2.823l-1.393-4.298-1.43 4.298zm.151-6.796h2.607l3.9 10.923h-2.498l-.728-2.245h-4.059l-.747 2.245h-2.41L64.28 6.29zM72.15 6.29h2.415l4.376 7.617V6.29h2.146v10.923h-2.303l-4.487-7.75v7.75H72.15zM86.248 13.086h2.823L87.68 8.788l-1.43 4.298zM86.4 6.29h2.606l3.9 10.923h-2.498l-.727-2.245h-4.06l-.746 2.245h-2.41L86.4 6.29zM24.14 23.192h68.766v-1.838H24.139z" mask="url(#b)"/>
        </g>
    </g>
</svg>
