<svg xmlns="http://www.w3.org/2000/svg" width="30" height="30" viewBox="0 0 30 30">
    <g fill="#A6A6A6" fill-rule="nonzero">
        <path d="M19.893 14.29H17.544v-2.349a.858.858 0 0 0-.852-.864H13.3a.858.858 0 0 0-.858.858v2.35h-2.344a.858.858 0 0 0-.864.852v3.391c0 .474.385.859.858.859h2.35v2.343a.858.858 0 0 0 .852.864H16.68a.858.858 0 0 0 .858-.858v-2.35h2.35a.858.858 0 0 0 .863-.852V15.15a.858.858 0 0 0-.858-.859zm-.294 3.945h-2.631a.576.576 0 0 0-.576.576v2.631h-2.798v-2.631a.576.576 0 0 0-.576-.576h-2.632v-2.793h2.632a.576.576 0 0 0 .576-.576V12.23h2.792v2.631c0 .318.258.576.576.576H19.6v2.799z"/>
        <path d="M25.012 6.77h-4.745V4.743a1.676 1.676 0 0 0-1.762-1.727H11.48a1.676 1.676 0 0 0-1.762 1.727v2.015H4.973C3.143 6.758 1 7.801 1 10.732v12.524c0 2.931 2.142 3.973 3.973 3.973h20.04c1.83 0 3.973-1.042 3.973-3.973V10.743c0-2.93-2.137-3.973-3.974-3.973zM10.87 4.743c0-.167 0-.616.616-.616h7.02c.616 0 .616.443.616.616v2.015H10.87V4.743zm16.964 18.513c0 2.545-1.97 2.822-2.822 2.822H4.973c-.846 0-2.821-.277-2.821-2.822V10.743c0-2.545 1.969-2.821 2.821-2.821h20.04c.846 0 2.82.276 2.82 2.821v12.513z"/>
    </g>
</svg>
