<svg xmlns="http://www.w3.org/2000/svg" xmlns:xlink="http://www.w3.org/1999/xlink" width="28" height="28" viewBox="0 0 28 28">
    <defs>
        <path id="a" d="M.004.022h3.802v16.155H.004z"/>
    </defs>
    <g fill="none" fill-rule="evenodd">
        <g transform="translate(2 7.81)">
            <mask id="b" fill="#fff">
                <use xlink:href="#a"/>
            </mask>
            <path fill="#CCC" d="M.981.855C.327 1.411 0 2.075 0 2.85V13.35c0 .774.327 1.44.981 1.994.654.556 1.437.833 2.349.833h.476V.022H3.33C2.418.022 1.635.3.981.855z" mask="url(#b)"/>
        </g>
        <path fill="#CCC" d="M19.082 5.25c0-.347-.123-.643-.37-.885a1.234 1.234 0 0 0-.9-.365h-7.624c-.353 0-.652.121-.9.365-.247.242-.37.538-.37.885v2.083H6.8V24h14.4V7.333h-2.118V5.25zm-8.47 2.083h6.777V5.667h-6.777v1.666zm8.47 9.584a.403.403 0 0 1-.423.416h-2.964v2.917a.403.403 0 0 1-.424.417H12.73a.402.402 0 0 1-.423-.416v-2.918H9.341a.402.402 0 0 1-.424-.417v-2.5A.402.402 0 0 1 9.341 14h2.965v-2.917a.402.402 0 0 1 .424-.416h2.54a.403.403 0 0 1 .424.417V14h2.965a.402.402 0 0 1 .423.417v2.5zM25.01 8.644c-.66-.556-1.45-.834-2.37-.834h-.48V24h.48c.92 0 1.71-.278 2.37-.835.66-.556.99-1.222.99-1.998V10.643c0-.776-.33-1.442-.99-1.999z"/>
    </g>
</svg>
