<svg xmlns="http://www.w3.org/2000/svg" width="30" height="30" viewBox="0 0 30 30">
    <g fill="#FFF" fill-rule="nonzero">
        <path d="M2 28h4c.553 0 1-.413 1-.923V10.923c0-.51-.447-.923-1-.923H2c-.553 0-1 .413-1 .923v16.154c0 .51.447.923 1 .923zM2 7h4c.553 0 1-.403 1-.9V2.9c0-.497-.447-.9-1-.9H2c-.553 0-1 .403-1 .9v3.2c0 .497.447.9 1 .9zM27.616 12.287c-.517-.666-1.279-1.214-2.286-1.643-1.008-.43-2.12-.644-3.337-.644-2.47 0-4.564.923-6.28 2.77-.342.367-.59.287-.59-.21v-1.2a.91.91 0 0 0-.919-.899H10.92a.91.91 0 0 0-.919.9V27.1c0 .496.411.899.919.899h3.678a.91.91 0 0 0 .918-.9v-5.473c0-2.28.141-3.844.422-4.69a3.881 3.881 0 0 1 1.56-2.036c.76-.513 1.617-.77 2.572-.77.746 0 1.384.18 1.914.54.53.358.913.86 1.148 1.508.236.647.354 2.072.354 4.275V27.1c0 .497.41.9.918.9h3.678a.91.91 0 0 0 .919-.9v-8.913c0-1.576-.101-2.787-.304-3.632a5.894 5.894 0 0 0-1.08-2.268z"/>
    </g>
</svg>
