<svg xmlns="http://www.w3.org/2000/svg" width="28" height="28" viewBox="0 0 28 28">
    <g fill="#FFF" fill-rule="evenodd">
        <path d="M14.499 14A3.505 3.505 0 0 0 18 10.502 3.506 3.506 0 0 0 14.499 7 3.504 3.504 0 0 0 11 10.502 3.503 3.503 0 0 0 14.499 14zm0-5.999c1.38 0 2.5 1.121 2.5 2.5 0 1.378-1.12 2.5-2.5 2.5s-2.5-1.122-2.5-2.5c0-1.379 1.12-2.5 2.5-2.5z"/>
        <path d="M21.703 16.799h-2.81l1.197-1.76c2.256-3.068 1.93-8.111-.7-10.793A7.4 7.4 0 0 0 14.07 2a7.4 7.4 0 0 0-5.32 2.247c-2.631 2.681-2.959 7.724-.71 10.78L9.246 16.8H6.297L2 26h24l-4.297-9.201zm-13.024-2.24c-2.04-2.773-1.747-7.328.626-9.746a6.624 6.624 0 0 1 4.765-2.014c1.8 0 3.492.715 4.766 2.014 2.374 2.418 2.666 6.974.617 9.758l-5.383 7.926-3.87-5.698-1.521-2.24zM6.793 17.6h2.995l4.282 6.303 4.28-6.303h2.856l3.55 7.6H3.243l3.55-7.6z"/>
    </g>
</svg>
