<svg xmlns="http://www.w3.org/2000/svg" width="30" height="30" viewBox="0 0 30 30">
    <g fill="#3ACAAA" fill-rule="nonzero">
        <path d="M22.864 11.429v-2.91C22.864 4.373 19.11 1 14.5 1 9.888 1 6.136 4.373 6.136 8.519v2.91C4.36 11.733 3 13.269 3 15.119v10.133C3 27.318 4.695 29 6.779 29H22.22C24.305 29 26 27.318 26 25.252V15.119c0-1.85-1.359-3.386-3.136-3.69zM7.182 8.519c0-3.575 3.283-6.482 7.318-6.482s7.318 2.907 7.318 6.482v2.851H7.182V8.52zm17.773 16.733c0 1.495-1.227 2.711-2.734 2.711H6.78c-1.507 0-2.734-1.216-2.734-2.711V15.119c0-1.495 1.227-2.712 2.734-2.712H22.22c1.507 0 2.734 1.217 2.734 2.712v10.133z"/>
        <path d="M14.5 16c-1.379 0-2.5 1.153-2.5 2.571v3.858C12 23.847 13.121 25 14.5 25s2.5-1.153 2.5-2.571V18.57C17 17.153 15.879 16 14.5 16zm1.5 6.6c0 .772-.673 1.4-1.5 1.4s-1.5-.628-1.5-1.4v-4.2c0-.772.673-1.4 1.5-1.4s1.5.628 1.5 1.4v4.2z"/>
    </g>
</svg>
