<svg xmlns="http://www.w3.org/2000/svg" width="28" height="28" viewBox="0 0 28 28">
    <g fill="#CCC" fill-rule="nonzero">
        <path d="M25.231 6.737a1.437 1.437 0 0 0-1.127-.546H9.492a1.438 1.438 0 0 0-1.368 1.873l2.69 8.406c.118.37.462.622.85.622h10.94a.894.894 0 0 0 .87-.685L25.5 7.962a1.438 1.438 0 0 0-.269-1.225z"/>
        <path d="M24.885 18.683h-14.11c-.5 0-.94-.32-1.093-.796L5.797 5.848a2.736 2.736 0 0 0-2.61-1.902h-.85a1.308 1.308 0 0 0 0 2.616h.85c.055 0 .104.036.12.089l3.885 12.038a3.755 3.755 0 0 0 3.583 2.61h14.11a1.307 1.307 0 1 0 0-2.616zM10.36 4.852h12.43a.383.383 0 0 0 .213-.702l-1.04-.696a.764.764 0 0 0-.767-.045l-.59.299a1.986 1.986 0 0 1-2.369-.438l-.431-.475a.76.76 0 0 0-.564-.25H15.56a.763.763 0 0 1-.48-.169L13.592 1.17a.761.761 0 0 0-1.062.103l-2.463 2.95a.382.382 0 0 0 .294.63zM11.702 22.805a2.086 2.086 0 1 0 0 4.172 2.086 2.086 0 0 0 0-4.172zM22.657 22.805a2.086 2.086 0 1 0 0 4.172 2.086 2.086 0 0 0 0-4.172z"/>
    </g>
</svg>
