<svg xmlns="http://www.w3.org/2000/svg" width="95" height="95" viewBox="0 0 95 95">
    <g fill="#0073E6" fill-rule="evenodd">
        <path d="M1 21v40h8.8V44.747h16.374V61H35V31h-8.826v6.28H9.8V21zM42 59h52v-3H42zM52.945 31.19h5.34v17.762h-3.459V36.937c0-.345.004-.83.012-1.452s.012-1.102.012-1.44l-3.365 14.907H47.88l-3.342-14.907c0 .338.004.818.012 1.44.008.623.012 1.107.012 1.452v12.015h-3.457V31.189h5.4l3.232 13.967 3.209-13.967zM65.76 42.24h4.549l-2.244-6.99-2.305 6.99zm.245-11.05h4.199l6.283 17.762h-4.024L71.29 45.3h-6.54l-1.204 3.652h-3.881l6.339-17.763zM82.374 48.952h-4.313l5.71-9.05-5.433-8.713h4.434l3.167 5.785 3.254-5.785h4.29l-5.434 8.568 5.77 9.195h-4.505l-3.375-6.057z"/>
    </g>
</svg>
