<svg xmlns="http://www.w3.org/2000/svg" width="28" height="26" viewBox="0 0 28 26">
    <g fill="#231F20" fill-rule="evenodd">
        <path d="M22 11.73l-5.528-.792L14 6l-2.472 4.938L6 11.729l4 3.844L9.056 21 14 18.438 18.944 21 18 15.573z"/>
        <path d="M14 0L9.674 8.559 0 9.93l7 6.662L5.348 26 14 21.559 22.653 26 21 16.593l7-6.662-9.674-1.372L14 0zM8.22 15.881l-5.78-5.5 7.988-1.133L14 2.182l3.572 7.066 7.987 1.133-5.78 5.5 1.365 7.767L14 19.981l-7.144 3.667 1.365-7.767z"/>
    </g>
</svg>
