<svg xmlns="http://www.w3.org/2000/svg" xmlns:xlink="http://www.w3.org/1999/xlink" width="65" height="65" viewBox="0 0 65 65">
    <defs>
        <circle id="a" cx="32.5" cy="32.5" r="32.5"/>
    </defs>
    <g fill="none" fill-rule="evenodd">
        <mask id="b" fill="#fff">
            <use xlink:href="#a"/>
        </mask>
        <use fill="#CCC" xlink:href="#a"/>
        <g mask="url(#b)">
            <g fill="#EAEAEA" transform="translate(7 14)">
                <g fill-rule="nonzero">
                    <path d="M25.743 28.392c7.675 0 13.9-6.368 13.9-14.218S33.419 0 25.744 0c-7.676 0-13.901 6.367-13.901 14.174 0 7.807 6.225 14.218 13.9 14.218zm0-24.685c5.628 0 10.233 4.71 10.233 10.467 0 5.757-4.605 10.467-10.233 10.467-5.629 0-10.234-4.71-10.234-10.467 0-5.757 4.605-10.467 10.234-10.467zM1.836 51h48.328C51.19 51 52 50.16 52 49.1c0-9.946-7.813-18.08-17.461-18.08H17.46C7.856 31.02 0 39.11 0 49.1 0 50.16.811 51 1.836 51zM17.46 34.822H34.54c7.001 0 12.765 5.393 13.661 12.377H3.8c.896-6.94 6.66-12.377 13.661-12.377z"/>
                </g>
                <ellipse cx="26.257" cy="14.196" rx="11.327" ry="11.567"/>
                <path d="M12.2 33.692h25.414l9.36 6.174 2.452 8.58H2.367l2.114-7.377 3.72-4.37z"/>
            </g>
        </g>
    </g>
</svg>
