<svg xmlns="http://www.w3.org/2000/svg" xmlns:xlink="http://www.w3.org/1999/xlink" width="272" height="190" viewBox="0 0 272 190">
    <defs>
        <path id="a" d="M0 0h272v190H0z"/>
        <path id="b" d="M0 99.782h89.767V.175H0z"/>
    </defs>
    <g fill="none" fill-rule="evenodd">
        <g>
            <use fill="#F2FBFF" xlink:href="#a"/>
            <path stroke="#EAEAEA" d="M.5.5h271v189H.5z"/>
        </g>
        <path fill="#ED3769" d="M96.77 134.881v3.689h-3.761v-3.689H91v9.675h2.009v-4.32h3.76v4.32h2.009v-9.675z"/>
        <g transform="translate(91 45.043)">
            <path fill="#ED3769" d="M16.713 97.182c.47-.59.705-1.43.705-2.52 0-1.085-.235-1.924-.705-2.517s-1.106-.89-1.907-.89c-.8 0-1.44.296-1.917.887-.476.59-.715 1.43-.715 2.52s.239 1.93.715 2.52c.478.591 1.116.887 1.917.887.801 0 1.437-.296 1.907-.887m1.263 1.47c-.73.753-1.787 1.13-3.17 1.13-1.382 0-2.44-.377-3.17-1.13-.98-.922-1.47-2.253-1.47-3.99 0-1.772.49-3.102 1.47-3.99.73-.753 1.788-1.13 3.17-1.13 1.383 0 2.44.377 3.17 1.13.976.888 1.464 2.218 1.464 3.99 0 1.737-.488 3.068-1.464 3.99M23.246 96.526c.062.442.185.772.368.991.336.398.91.597 1.723.597.487 0 .882-.052 1.186-.157.576-.201.865-.575.865-1.122 0-.32-.142-.567-.424-.742-.283-.17-.73-.322-1.343-.453l-1.048-.23c-1.03-.227-1.736-.474-2.121-.741-.652-.447-.978-1.144-.978-2.094 0-.866.319-1.586.957-2.16.638-.572 1.574-.86 2.81-.86 1.032 0 1.912.27 2.641.811.729.54 1.11 1.325 1.146 2.353h-1.942c-.036-.581-.297-.995-.781-1.24-.323-.162-.724-.243-1.204-.243-.534 0-.96.105-1.279.315a.997.997 0 0 0-.478.88c0 .345.157.603.471.774.202.114.63.247 1.286.4l1.698.4c.744.176 1.301.41 1.673.703.576.455.865 1.114.865 1.976 0 .884-.342 1.618-1.025 2.202-.684.584-1.649.876-2.896.876-1.274 0-2.275-.288-3.005-.863-.73-.576-1.095-1.367-1.095-2.373h1.93z"/>
            <mask id="c" fill="#fff">
                <use xlink:href="#b"/>
            </mask>
            <path fill="#ED3769" d="M31.397 99.513h2.008v-9.675h-2.008zM38.735 95.857h2.478l-1.222-3.807-1.256 3.807zm.133-6.019h2.288l3.423 9.675h-2.192l-.639-1.99h-3.563l-.655 1.99h-2.115l3.453-9.675zM46.583 89.838h2.12l3.84 6.746v-6.746h1.883v9.675h-2.021l-3.938-6.865v6.865h-1.884zM59.763 95.857h2.478l-1.223-3.807-1.255 3.807zm.133-6.019h2.287l3.423 9.675h-2.192l-.638-1.99h-3.563l-.656 1.99h-2.114l3.453-9.675zM67.46 99.512h1.988V97.55h-1.989z" mask="url(#c)"/>
            <path fill="#6F809D" d="M77.845 89.838h2.1l-3.298 9.675h-1.91l-3.271-9.675h2.16l2.1 7.345zM81.924 89.838h2.119l3.84 6.746v-6.746h1.884v9.675h-2.021l-3.939-6.865v6.865h-1.883z" mask="url(#c)"/>
            <path fill="#E3395E" d="M58.848 27.524v-10.55h14.716v50.399H58.848V40.068H31.544v27.305H16.872V.175h14.672v27.35z" mask="url(#c)"/>
        </g>
    </g>
</svg>
