<svg xmlns="http://www.w3.org/2000/svg" width="353" height="167" viewBox="0 0 353 167">
    <defs>
        <linearGradient id="a" x1="32.842%" x2="10.715%" y1="100%" y2="33.499%">
            <stop offset="0%" stop-color="#FFF" stop-opacity=".02"/>
            <stop offset="100%" stop-color="#DCDCDC"/>
        </linearGradient>
    </defs>
    <g fill="none" fill-rule="evenodd">
        <path fill="url(#a)" d="M0 69.353l23.103 66.67 153.542-33.335L30.208 38z" transform="translate(107.355)"/>
        <path fill="#B2B5C8" fill-rule="nonzero" d="M30.267 167h81.466c3.463 0 6.267-2.685 6.267-6s-2.804-6-6.267-6H30.267c-3.463 0-6.267 2.685-6.267 6s2.804 6 6.267 6"/>
        <g fill="#868BA5" fill-rule="nonzero">
            <path d="M59.085 142.302c0-6.846 5.55-12.396 12.396-12.396 6.846 0 12.396 5.55 12.396 12.396 0 6.846-5.55 12.396-12.396 12.396-6.845 0-12.396-5.55-12.396-12.396M.204 83.42c0-6.845 5.55-12.395 12.396-12.395 6.846 0 12.396 5.55 12.396 12.396 0 6.846-5.55 12.396-12.396 12.396-6.846 0-12.396-5.55-12.396-12.396"/>
        </g>
        <path fill="#B2B5C8" fill-rule="nonzero" d="M140.64 28.031l4.36 4.36L101.391 76l-4.36-4.36c-12.041-12.042-12.041-31.567 0-43.609 12.042-12.041 31.567-12.041 43.609 0"/>
        <path fill="#CCC" fill-rule="nonzero" d="M135.158 42c3.349 7.02 2.137 15.67-3.677 21.48-5.811 5.815-14.461 7.027-21.481 3.677L135.158 42z"/>
        <g fill="#B2B5C8" fill-rule="nonzero">
            <path d="M15.118 71.928l53.87-50.742a15.323 15.323 0 0 0 3.494 5.375l4.485 4.409-52.758 49.8a12.363 12.363 0 0 0-9.09-8.842M24.23 87.014l44.325 43.611c-.849.192-1.66.476-2.432.832-.066.031-.125.071-.19.102-.715.346-1.39.751-2.022 1.221-.04.028-.074.062-.111.09a12.576 12.576 0 0 0-1.795 1.672c-.003.003-.006.006-.006.01a12.208 12.208 0 0 0-1.48 2.089c-.567 1.004-1.024 2.077-1.292 3.23L15.481 95.809c4.289-1.16 7.632-4.513 8.749-8.795"/>
        </g>
        <path fill="#868BA5" fill-rule="nonzero" d="M73.49 4.49c5.986-5.987 15.688-5.987 21.674 0L110 19.488A30.493 30.493 0 0 0 88.488 41L73.49 26.164c-5.987-5.986-5.987-15.688 0-21.674"/>
        <text fill="#9C9C9C" font-family="Roboto-Medium, Roboto" font-size="24" font-weight="400" letter-spacing=".081">
            <tspan x="147" y="157">There is no result!!!</tspan>
        </text>
        <text fill="#9C9C9C" font-family="Roboto-Bold, Roboto" font-size="48" font-weight="bold" letter-spacing=".162">
            <tspan x="144" y="125">OOPS!!</tspan>
        </text>
    </g>
</svg>
