<svg xmlns="http://www.w3.org/2000/svg" width="436" height="199" viewBox="0 0 436 199">
    <g fill="none" fill-rule="evenodd">
        <text fill="#9C9C9C" font-family="Roboto-Medium, Roboto" font-size="24" font-weight="400" letter-spacing=".081">
            <tspan x="221" y="194">This page not found</tspan>
        </text>
        <text fill="#CCC" font-family="Roboto-Bold, Roboto" font-size="48" font-weight="bold" letter-spacing=".162">
            <tspan x="220" y="159">SORRY!!</tspan>
        </text>
        <text fill="#CCC" font-family="Roboto-Bold, Roboto" font-size="90" font-weight="bold" letter-spacing=".303">
            <tspan x="220" y="103">404</tspan>
        </text>
        <g fill="#B2B5C8" fill-rule="nonzero">
            <path d="M16 143c-1.656 0-3 1.456-3 3.25v6.5c0 1.794 1.344 3.25 3 3.25s3-1.456 3-3.25v-6.5c0-1.794-1.344-3.25-3-3.25zM16 163c-1.656 0-3 1.456-3 3.25v6.5c0 1.794 1.344 3.25 3 3.25s3-1.456 3-3.25v-6.5c0-1.794-1.344-3.25-3-3.25zM16 123c-1.656 0-3 1.456-3 3.25v6.5c0 1.794 1.344 3.25 3 3.25s3-1.456 3-3.25v-6.5c0-1.794-1.344-3.25-3-3.25zM29 143c-1.656 0-3 1.456-3 3.25v6.5c0 1.794 1.344 3.25 3 3.25s3-1.456 3-3.25v-6.5c0-1.794-1.344-3.25-3-3.25zM29 123c-1.656 0-3 1.456-3 3.25v6.5c0 1.794 1.344 3.25 3 3.25s3-1.456 3-3.25v-6.5c0-1.794-1.344-3.25-3-3.25zM29 163c-1.656 0-3 1.456-3 3.25v6.5c0 1.794 1.344 3.25 3 3.25s3-1.456 3-3.25v-6.5c0-1.794-1.344-3.25-3-3.25z"/>
            <path d="M185.74 35.75h-6.517V26c0-1.794-1.46-3.25-3.258-3.25h-19.552a3.255 3.255 0 0 0-3.258 3.25v9.75h-6.518A3.255 3.255 0 0 0 143.38 39v52h-3.259v-9.75c0-1.794-1.46-3.25-3.258-3.25h-3.26v-3.25c0-1.794-1.459-3.25-3.258-3.25a3.255 3.255 0 0 0-3.258 3.25V78h-3.259a3.255 3.255 0 0 0-3.258 3.25V91h-9.776V26c0-1.794-1.46-3.25-3.259-3.25h-9.776V3.25c0-1.794-1.46-3.25-3.259-3.25H55.396a3.255 3.255 0 0 0-3.259 3.25v19.5h-9.775A3.255 3.255 0 0 0 39.103 26v84.5h-6.517v-9.75c0-1.794-1.46-3.25-3.259-3.25H9.775a3.255 3.255 0 0 0-3.258 3.25v9.75H3.258A3.255 3.255 0 0 0 0 113.75v78c0 1.794 1.46 3.25 3.258 3.25H185.742a3.255 3.255 0 0 0 3.258-3.25V39c0-1.794-1.46-3.25-3.26-3.25zM91.24 39c0-1.794 1.46-3.25 3.26-3.25A3.255 3.255 0 0 1 97.757 39v52H91.24V39zM78.207 16.25c0-1.794 1.46-3.25 3.259-3.25a3.255 3.255 0 0 1 3.258 3.25V26c0 1.794-1.46 3.25-3.258 3.25A3.255 3.255 0 0 1 78.206 26v-9.75zm0 22.75c0-1.794 1.46-3.25 3.259-3.25A3.255 3.255 0 0 1 84.723 39v52h-6.517V39zM65.172 16.25c0-1.794 1.46-3.25 3.258-3.25a3.255 3.255 0 0 1 3.259 3.25V26c0 1.794-1.46 3.25-3.259 3.25A3.255 3.255 0 0 1 65.172 26v-9.75zM52.137 39c0-1.794 1.46-3.25 3.259-3.25A3.255 3.255 0 0 1 58.654 39v71.5h-6.517V39zm13.035 143h-9.776a3.255 3.255 0 0 1-3.259-3.25c0-1.793 1.46-3.25 3.259-3.25h9.776v6.5zm0-13h-9.776a3.255 3.255 0 0 1-3.259-3.25c0-1.794 1.46-3.25 3.259-3.25h9.776v6.5zm0-13h-9.776a3.255 3.255 0 0 1-3.259-3.25c0-1.793 1.46-3.25 3.259-3.25h9.776v6.5zm0-13h-9.776a3.255 3.255 0 0 1-3.259-3.25c0-1.793 1.46-3.25 3.259-3.25h9.776v6.5zm0-19.5h-22.81a3.255 3.255 0 0 0-3.259 3.25v61.75H6.517V117h58.655v6.5zm0-29.25V39c0-1.794 1.46-3.25 3.258-3.25A3.255 3.255 0 0 1 71.69 39v52H68.43a3.256 3.256 0 0 0-3.258 3.25zm78.207 94.25h-6.518v-81.25c0-1.794-1.46-3.25-3.258-3.25a3.255 3.255 0 0 0-3.259 3.25v81.25h-6.517v-81.25c0-1.794-1.46-3.25-3.258-3.25a3.255 3.255 0 0 0-3.259 3.25v81.25h-6.517v-81.25c0-1.794-1.46-3.25-3.259-3.25a3.255 3.255 0 0 0-3.258 3.25v81.25h-6.518v-81.25c0-1.794-1.46-3.25-3.258-3.25a3.255 3.255 0 0 0-3.259 3.25v81.25h-6.517v-81.25c0-1.794-1.46-3.25-3.259-3.25a3.255 3.255 0 0 0-3.258 3.25v81.25h-6.518v-91h71.69v91zm19.552-12.366c0 1.794-1.46 3.25-3.259 3.25a3.255 3.255 0 0 1-3.258-3.25v-6.5c0-1.794 1.46-3.25 3.258-3.25a3.255 3.255 0 0 1 3.259 3.25v6.5zm0-19.5c0 1.794-1.46 3.25-3.259 3.25a3.255 3.255 0 0 1-3.258-3.25v-6.5c0-1.794 1.46-3.25 3.258-3.25a3.255 3.255 0 0 1 3.259 3.25v6.5zm0-19.5c0 1.794-1.46 3.25-3.259 3.25a3.255 3.255 0 0 1-3.258-3.25v-6.5c0-1.794 1.46-3.25 3.258-3.25a3.255 3.255 0 0 1 3.259 3.25v6.5zm0-19.5c0 1.794-1.46 3.25-3.259 3.25a3.255 3.255 0 0 1-3.258-3.25v-6.5c0-1.794 1.46-3.25 3.258-3.25a3.255 3.255 0 0 1 3.259 3.25v6.5zm0-19.5c0 1.794-1.46 3.25-3.259 3.25a3.255 3.255 0 0 1-3.258-3.25v-6.5c0-1.794 1.46-3.25 3.258-3.25a3.255 3.255 0 0 1 3.259 3.25v6.5zm0-19.5c0 1.794-1.46 3.25-3.259 3.25a3.255 3.255 0 0 1-3.258-3.25v-6.5c0-1.794 1.46-3.25 3.258-3.25a3.255 3.255 0 0 1 3.259 3.25v6.5zm0-19.5c0 1.794-1.46 3.25-3.259 3.25a3.255 3.255 0 0 1-3.258-3.25v-6.5c0-1.794 1.46-3.25 3.258-3.25a3.255 3.255 0 0 1 3.259 3.25v6.5zm13.034 117c0 1.794-1.46 3.25-3.259 3.25a3.255 3.255 0 0 1-3.258-3.25v-6.5c0-1.794 1.46-3.25 3.258-3.25a3.255 3.255 0 0 1 3.259 3.25v6.5zm0-19.5c0 1.794-1.46 3.25-3.259 3.25a3.255 3.255 0 0 1-3.258-3.25v-6.5c0-1.794 1.46-3.25 3.258-3.25a3.255 3.255 0 0 1 3.259 3.25v6.5zm0-19.5c0 1.794-1.46 3.25-3.259 3.25a3.255 3.255 0 0 1-3.258-3.25v-6.5c0-1.794 1.46-3.25 3.258-3.25a3.255 3.255 0 0 1 3.259 3.25v6.5zm0-19.5c0 1.794-1.46 3.25-3.259 3.25a3.255 3.255 0 0 1-3.258-3.25v-6.5c0-1.794 1.46-3.25 3.258-3.25a3.255 3.255 0 0 1 3.259 3.25v6.5zm0-19.5c0 1.794-1.46 3.25-3.259 3.25a3.255 3.255 0 0 1-3.258-3.25v-6.5c0-1.794 1.46-3.25 3.258-3.25a3.255 3.255 0 0 1 3.259 3.25v6.5zm0-19.5c0 1.794-1.46 3.25-3.259 3.25a3.255 3.255 0 0 1-3.258-3.25v-6.5c0-1.794 1.46-3.25 3.258-3.25a3.255 3.255 0 0 1 3.259 3.25v6.5zm0-19.5c0 1.794-1.46 3.25-3.259 3.25a3.255 3.255 0 0 1-3.258-3.25v-6.5c0-1.794 1.46-3.25 3.258-3.25a3.255 3.255 0 0 1 3.259 3.25v6.5z"/>
        </g>
    </g>
</svg>
