<svg xmlns="http://www.w3.org/2000/svg" width="28" height="28" viewBox="0 0 28 28">
    <path fill="#555" fill-rule="nonzero" d="M16.19 23.789l.003.03C16.193 25.023 15.21 26 14 26a2.187 2.187 0 0 1-2.193-2.18c0-.011.003-.02.003-.031C4.797 23.598 3 22.465 3 21.09c0-.43.19-.834.65-1.197 3.315-3.663 4.3-2.649 4.3-8.076 0-3.618.15-6.935 4.542-7.533a1.624 1.624 0 0 1-.136-.65A1.64 1.64 0 0 1 14 2a1.64 1.64 0 0 1 1.645 1.636c0 .23-.05.45-.137.65 4.393.597 4.542 3.914 4.542 7.532 0 5.443.99 4.405 4.33 8.108.436.354.62.748.62 1.165 0 1.373-1.844 2.506-8.81 2.698zM14 24.91c.606 0 1.097-.488 1.097-1.09l-.001-.01c-.358.006-.713.011-1.096.011-.383 0-.737-.005-1.096-.01v.01c0 .601.49 1.09 1.096 1.09zm0-21.82a.546.546 0 1 0 0 1.09.546.546 0 0 0 0-1.09zm9.683 17.68s-.837-.935-2.21-2.174c-1.875-1.694-2.523-2.497-2.523-6.778 0-4.181-.23-6.547-4.95-6.547s-4.95 2.366-4.95 6.547c0 4.282-.649 5.086-2.524 6.78-1.346 1.216-2.193 2.15-2.193 2.15-.233.185-.233.292-.233.343 0 .068.113 1.639 9.9 1.639s9.9-1.571 9.9-1.639c0-.043 0-.145-.217-.32z"/>
</svg>
