<svg xmlns="http://www.w3.org/2000/svg" width="30" height="30" viewBox="0 0 30 30">
    <path fill="#3ACAAA" fill-rule="evenodd" d="M18.02 16.85h-6.04C5.916 16.85 1 21.991 1 28.34V29h28v-.66c0-6.349-4.916-11.49-10.98-11.49zM15.356 2c-3.57 0-6.463 2.941-6.463 6.572 0 3.63 2.894 6.572 6.463 6.572s6.462-2.941 6.462-6.572c0-3.63-2.893-6.572-6.462-6.572zm2.664 16.286c5.048 0 9.2 4.096 9.58 9.278H2.4c.38-5.182 4.532-9.278 9.58-9.278h6.04zm-2.664-14.85c2.806 0 5.09 2.304 5.09 5.136 0 2.832-2.284 5.136-5.09 5.136-2.807 0-5.09-2.304-5.09-5.136 0-2.832 2.283-5.136 5.09-5.136z"/>
</svg>
