<svg xmlns="http://www.w3.org/2000/svg" xmlns:xlink="http://www.w3.org/1999/xlink" width="28" height="28" viewBox="0 0 28 28">
    <defs>
        <path id="a" d="M0 0h24v24H0z"/>
    </defs>
    <g fill="none" fill-rule="evenodd" transform="translate(2 2)">
        <mask id="b" fill="#fff">
            <use xlink:href="#a"/>
        </mask>
        <path fill="#E4375C" d="M19.362 14.71c-.502-.52-1.108-.798-1.75-.798-.636 0-1.247.273-1.77.793l-1.635 1.623c-.135-.072-.269-.139-.398-.206-.187-.093-.363-.18-.513-.273-1.532-.969-2.924-2.231-4.26-3.864-.646-.814-1.08-1.5-1.396-2.195.424-.386.817-.788 1.2-1.175.145-.144.29-.293.435-.438 1.087-1.082 1.087-2.483 0-3.565L7.862 3.205c-.16-.16-.326-.324-.481-.49-.31-.319-.637-.649-.973-.958C5.906 1.263 5.305 1 4.674 1s-1.242.263-1.76.757l-.01.01-1.76 1.768A3.762 3.762 0 0 0 .021 5.931c-.124 1.504.321 2.906.663 3.823.838 2.251 2.09 4.338 3.959 6.574 2.267 2.695 4.994 4.823 8.11 6.322 1.19.562 2.78 1.226 4.554 1.34.109.005.223.01.326.01 1.196 0 2.2-.427 2.987-1.278.005-.01.015-.015.02-.025.27-.325.58-.619.906-.933.222-.211.45-.433.673-.665.512-.53.781-1.149.781-1.782 0-.64-.274-1.253-.797-1.768l-2.841-2.839zm1.853 5.426c-.006 0-.006.005 0 0-.202.216-.41.412-.632.628-.336.32-.678.655-.999 1.03-.522.557-1.138.82-1.946.82-.077 0-.16 0-.238-.005-1.537-.098-2.965-.696-4.036-1.206-2.93-1.411-5.502-3.416-7.64-5.956C3.96 13.33 2.78 11.372 1.999 9.27c-.481-1.282-.657-2.282-.58-3.225a2.36 2.36 0 0 1 .715-1.53l1.765-1.757c.253-.237.522-.366.786-.366.326 0 .59.196.756.36l.015.016c.316.294.616.598.932.922.16.165.326.33.492.5l1.413 1.407c.548.546.548 1.051 0 1.597-.15.15-.295.3-.445.443-.435.443-.85.856-1.3 1.257-.01.01-.02.016-.025.026-.445.443-.363.876-.27 1.17l.016.046c.368.886.885 1.721 1.672 2.715l.005.005c1.428 1.752 2.934 3.118 4.596 4.164.212.134.43.242.636.345.187.093.362.18.513.273.02.01.041.026.062.036.176.088.341.129.512.129.43 0 .699-.268.787-.356l1.77-1.762c.176-.175.455-.386.781-.386.321 0 .585.2.745.376l2.862 2.85c.534.525.534 1.066.006 1.612zM13.545 5.313a6.217 6.217 0 0 1 3.382 1.755 6.25 6.25 0 0 1 1.755 3.383c.054.324.333.549.652.549.04 0 .074-.005.113-.01a.663.663 0 0 0 .544-.765 7.562 7.562 0 0 0-2.123-4.093 7.56 7.56 0 0 0-4.093-2.123.666.666 0 0 0-.765.54.655.655 0 0 0 .535.764zM23.99 10.236a12.43 12.43 0 0 0-3.49-6.734A12.422 12.422 0 0 0 13.767.01a.658.658 0 0 0-.76.539c-.058.362.182.7.544.764a11.122 11.122 0 0 1 6.017 3.12 11.097 11.097 0 0 1 3.119 6.019.657.657 0 0 0 .65.548c.04 0 .074-.005.113-.01a.649.649 0 0 0 .539-.754z" mask="url(#b)"/>
    </g>
</svg>
