<svg xmlns="http://www.w3.org/2000/svg" width="30" height="30" viewBox="0 0 30 30">
    <g fill="none" fill-rule="evenodd" transform="translate(1 1)">
        <circle cx="14" cy="14" r="13" fill="#000" fill-opacity=".2"/>
        <path fill="#FFF" d="M14 28C6.268 28 0 21.732 0 14S6.268 0 14 0s14 6.268 14 14-6.268 14-14 14zm0-26.6C7.041 1.4 1.4 7.041 1.4 14S7.041 26.6 14 26.6 26.6 20.959 26.6 14 20.959 1.4 14 1.4zm6.325 13.998l-8.122 5.083c-.2.125-.42.192-.635.192-.574 0-1.007-.447-1.007-1.04V9.37c0-.592.433-1.04 1.007-1.04.216 0 .436.067.635.192l8.122 5.082c.338.212.532.539.532.896 0 .358-.194.685-.532.897zm-8.204-5.144v8.496l6.788-4.248-6.788-4.248z"/>
    </g>
</svg>
