<svg xmlns="http://www.w3.org/2000/svg" width="100" height="94" viewBox="0 0 100 94">
    <g fill="#CCC" fill-rule="evenodd">
        <g fill-rule="nonzero">
            <path d="M49.505 53.443c14.76 0 26.733-11.986 26.733-26.762C76.238 11.904 64.265 0 49.505 0S22.772 11.986 22.772 26.68c0 14.696 11.972 26.763 26.733 26.763zm0-46.465c10.824 0 19.68 8.866 19.68 19.703 0 10.836-8.856 19.702-19.68 19.702s-19.68-8.866-19.68-19.703c0-10.836 8.856-19.702 19.68-19.702zM3.53 96h92.94c1.97 0 3.53-1.58 3.53-3.578 0-18.72-15.025-34.03-33.58-34.03H33.58C15.107 58.392 0 73.618 0 92.422 0 94.42 1.56 96 3.53 96zm30.05-30.453h32.84c13.465 0 24.549 10.151 26.273 23.297H7.307C9.031 75.781 20.115 65.547 33.58 65.547z"/>
        </g>
        <ellipse cx="50.495" cy="26.722" rx="21.782" ry="21.773"/>
        <path d="M23.463 63.42h48.872l17.999 11.623 4.716 16.15H4.552l4.066-13.887 7.154-8.226z"/>
    </g>
</svg>
