<svg xmlns="http://www.w3.org/2000/svg" width="30" height="30" viewBox="0 0 30 30">
    <g fill="#A6A6A6" fill-rule="nonzero">
        <path d="M21.112 28.528a2.268 2.268 0 0 1-2.265-2.266l.654-13.732c-1.904-.714-3.028-2.786-3.028-5.624 0-3.256 2.08-5.906 4.64-5.906 2.557 0 4.639 2.65 4.639 5.906 0 2.838-1.125 4.909-3.027 5.624l.653 13.712a2.273 2.273 0 0 1-2.266 2.286zm0-26.653c-2.075 0-3.764 2.257-3.764 5.031 0 2.585 1.019 4.414 2.723 4.89a.437.437 0 0 1 .32.443l-.67 14.044c0 .747.624 1.37 1.391 1.37s1.39-.623 1.39-1.39l-.668-14.025a.438.438 0 0 1 .32-.441c1.705-.477 2.723-2.306 2.723-4.89 0-2.775-1.69-5.032-3.765-5.032zM9.166 28.528a2.268 2.268 0 0 1-2.265-2.266l.653-13.74a4.587 4.587 0 0 1-3.027-4.293V1.438c0-.242.196-.438.437-.438h1.96c.24 0 .437.196.437.438V7.31h.486V1.438c0-.242.196-.438.437-.438h1.764c.241 0 .437.196.437.438V7.31h.486V1.438c0-.242.196-.438.438-.438h1.959c.241 0 .437.196.437.438v6.791a4.587 4.587 0 0 1-3.027 4.293l.653 13.72a2.273 2.273 0 0 1-2.265 2.286zM5.402 1.875v6.354a3.71 3.71 0 0 0 2.722 3.557c.197.055.33.237.32.442l-.668 14.055c0 .747.623 1.37 1.39 1.37.766 0 1.39-.623 1.39-1.39l-.668-14.035a.438.438 0 0 1 .32-.442A3.71 3.71 0 0 0 12.93 8.23V1.875h-1.084v5.872a.438.438 0 0 1-.437.438h-1.361a.438.438 0 0 1-.438-.438V1.875h-.889v5.872a.438.438 0 0 1-.437.438h-1.36a.438.438 0 0 1-.437-.438V1.875H5.402z"/>
    </g>
</svg>
