<svg xmlns="http://www.w3.org/2000/svg" width="30" height="30" viewBox="0 0 30 30">
    <g fill="#A6A6A6" fill-rule="nonzero">
        <path d="M24.777 11.53a.514.514 0 0 0-.082-.196.523.523 0 0 0-.245-.201.551.551 0 0 0-.513.05.523.523 0 0 0-.201.245.514.514 0 0 0-.042.21.548.548 0 0 0 1.001.303.555.555 0 0 0 .082-.41zM22.163 11.09H17.19a.547.547 0 0 0 0 1.094h4.973a.547.547 0 1 0 0-1.093zM4.877 11.53a.548.548 0 0 0-1.073 0 .538.538 0 0 0 .082.41.527.527 0 0 0 .151.152.555.555 0 0 0 .41.082.555.555 0 0 0 .28-.15.551.551 0 0 0 .15-.493zM11.392 11.09H6.419a.547.547 0 0 0 0 1.094h4.973a.547.547 0 1 0 0-1.093z"/>
        <path d="M28.866 21.882a.547.547 0 0 0-.435-.435 9.775 9.775 0 0 0-2.154-.119V13.88h.757a.547.547 0 0 0 .547-.546V9.94a.547.547 0 0 0-.547-.547H1.547A.547.547 0 0 0 1 9.941v3.393c0 .302.245.546.547.546h.757v14.573c0 .302.245.546.547.546h18.303a.545.545 0 0 0 .22-.046 2.52 2.52 0 0 0 1.136-.041c.271.027.623.05 1.022.05 1.256 0 2.978-.238 4.102-1.363 1.925-1.924 1.261-5.563 1.232-5.717zM2.094 12.787v-2.299h24.394v2.299H2.094zm23.09 1.093v4.42H21.7v-4.42h3.482zm-4.576 0v4.42h-3.483v-4.42h3.483zm-4.576 0v4.42H12.55v-4.42h3.482zm-4.576 0v4.42H7.974v-4.42h3.482zm-4.576 0v4.42H3.398v-4.42H6.88zm0 14.026H3.398V23.2H6.88v4.705zm4.576 0H7.974V23.2h3.482v4.705zm4.576 0H12.55V23.2h3.482v4.705zm1.093 0V23.2h.39a1.62 1.62 0 0 0 .477 1.16c-.321.318-.42.687-.45.856-.172.97.49 2.115 1.415 2.452.162.059.531.157.965.038.019.07.041.137.067.199h-2.864zm3.123-1.857c-.293.508-.601.707-.917.592-.425-.154-.791-.789-.713-1.234.059-.33.386-.498.972-.498a.551.551 0 0 0 .083-.006c.103.416.323.787.623 1.076a.537.537 0 0 0-.048.07zm-.917-3.966c.315-.115.624.084.917.592.014.025.03.048.048.07-.3.289-.52.66-.623 1.076a.551.551 0 0 0-.084-.006c-.586 0-.912-.168-.97-.498-.08-.445.287-1.08.712-1.234zm3.235 5.603c-.346.291-1.079.29-1.425 0-.257-.215-.239-.582.054-1.09a.556.556 0 0 0 .036-.075 2.241 2.241 0 0 0 1.245 0c.01.026.022.05.036.075.293.508.311.875.054 1.09zm-.712-2.171a1.154 1.154 0 0 1-1.153-1.153 1.154 1.154 0 0 1 2.306 0c0 .636-.518 1.153-1.153 1.153zm-.713-4.477c.346-.29 1.079-.29 1.425 0 .257.216.239.582-.054 1.09a.553.553 0 0 0-.036.075 2.241 2.241 0 0 0-1.245 0 .556.556 0 0 0-.036-.075c-.293-.508-.311-.874-.054-1.09zm2.128-.838c-.754-.633-2.077-.633-2.83 0l-.006.004H7.427a.547.547 0 0 0 0 1.093h11.076a2.41 2.41 0 0 0-.7.81H3.397v-2.713h21.785v1.889a1.874 1.874 0 0 0-.433-.228 1.62 1.62 0 0 0-.965-.038 1.621 1.621 0 0 0-.516-.817zm1.82 3.117c-.059.33-.385.498-.971.498a.544.544 0 0 0-.084.007 2.248 2.248 0 0 0-.623-1.077.551.551 0 0 0 .048-.07c.293-.508.601-.707.917-.592.425.154.791.789.713 1.234zm-1.63 2.732a.547.547 0 0 0-.048-.07c.3-.289.52-.66.623-1.076a.551.551 0 0 0 .084.006c.586 0 .912.168.97.498.08.445-.287 1.08-.712 1.234-.315.115-.624-.084-.917-.592zm3.402.777c-.81.81-2.1 1.023-3.128 1.043.02-.051.037-.105.052-.162.434.119.803.021.965-.038.925-.337 1.587-1.482 1.416-2.452a1.62 1.62 0 0 0-.45-.855c.32-.317.42-.685.45-.855a2.081 2.081 0 0 0-.111-1.066 8.991 8.991 0 0 1 1.79.027c.104.897.222 3.152-.984 4.358zM17.87 5.613c-.194-.217-.3-.337-.3-.623 0-.285.106-.405.3-.622.054-.062.11-.125.167-.197a.547.547 0 0 0-.855-.682c-.04.05-.084.1-.13.153-.244.273-.576.648-.576 1.348 0 .701.332 1.076.575 1.35.193.217.3.337.3.622s-.107.405-.3.623a3.238 3.238 0 0 0-.274.34.547.547 0 1 0 .906.613c.05-.073.116-.148.186-.227.243-.274.576-.648.576-1.349 0-.7-.333-1.075-.576-1.349zM14.726 3.33c-.193-.217-.3-.337-.3-.623 0-.285.107-.405.3-.622.054-.062.11-.125.168-.197a.547.547 0 0 0-.856-.681c-.039.048-.083.098-.13.152-.243.273-.576.648-.576 1.348 0 .701.333 1.076.576 1.35.193.217.3.337.3.622s-.107.405-.3.623a3.253 3.253 0 0 0-.275.34.547.547 0 0 0 .906.613c.05-.073.116-.148.187-.227.243-.274.575-.648.575-1.349 0-.7-.332-1.075-.575-1.349zM11.418 5.613c-.193-.217-.3-.337-.3-.623 0-.285.107-.405.3-.622.054-.062.11-.125.168-.197a.547.547 0 0 0-.856-.682c-.039.05-.083.1-.13.153-.243.273-.576.648-.576 1.348 0 .701.333 1.076.576 1.35.193.217.3.337.3.622s-.107.405-.3.623c-.087.097-.185.208-.275.34a.547.547 0 1 0 .906.613c.05-.073.116-.148.187-.227.243-.274.575-.648.575-1.349 0-.7-.332-1.075-.575-1.349z"/>
    </g>
</svg>
