<svg xmlns="http://www.w3.org/2000/svg" width="28" height="28" viewBox="0 0 28 28">
    <g fill="#CCC" fill-rule="nonzero">
        <path d="M4.977 4.004h-.002a.926.926 0 0 0-.926.93v13.952c0 .511.418.929.932.93 2.166.005 5.794.456 8.297 3.076v-14.6a.892.892 0 0 0-.128-.472c-2.054-3.308-6.002-3.81-8.173-3.816zM23.95 18.886V4.935a.926.926 0 0 0-.925-.93h-.002c-2.17.004-6.118.507-8.173 3.815a.891.891 0 0 0-.128.472v14.6c2.503-2.62 6.132-3.071 8.297-3.076a.933.933 0 0 0 .932-.93z"/>
        <path d="M26.07 7.222h-.675v11.664a2.38 2.38 0 0 1-2.372 2.374c-1.837.005-4.866.364-7.011 2.394 3.71-.908 7.62-.318 9.85.19A.929.929 0 0 0 27 22.938V8.152a.931.931 0 0 0-.93-.93zM2.605 18.886V7.222H1.93a.931.931 0 0 0-.93.93v14.785a.928.928 0 0 0 1.138.906c2.23-.507 6.14-1.097 9.85-.19-2.145-2.03-5.174-2.388-7.01-2.393a2.38 2.38 0 0 1-2.373-2.374z"/>
    </g>
</svg>
