<svg xmlns="http://www.w3.org/2000/svg" width="28" height="28" viewBox="0 0 28 28">
    <path fill="#555" fill-rule="nonzero" d="M20.265 9.39c2.06 0 3.734-1.658 3.734-3.695C24 3.657 22.324 2 20.265 2S16.53 3.657 16.53 5.695c0 .48.1.934.268 1.355l-7.418 4.257a3.74 3.74 0 0 0-2.647-1.095C4.675 10.212 3 11.87 3 13.907c0 2.038 1.675 3.695 3.734 3.695 1.05 0 1.996-.435 2.676-1.128l7.355 4.587c-.142.391-.233.806-.233 1.244 0 2.038 1.675 3.695 3.733 3.695C22.325 26 24 24.343 24 22.305c0-2.037-1.675-3.695-3.735-3.695-1.07 0-2.03.454-2.71 1.17l-7.337-4.576c.154-.405.25-.84.25-1.298 0-.473-.099-.921-.263-1.338l7.424-4.26a3.732 3.732 0 0 0 2.636 1.082zm0 10.721c1.223 0 2.218.985 2.218 2.195s-.995 2.195-2.218 2.195c-1.223 0-2.218-.985-2.218-2.195 0-.403.118-.777.31-1.102.007-.008.014-.014.02-.023.009-.012.009-.027.016-.04a2.214 2.214 0 0 1 1.872-1.03zM6.733 16.103c-1.223 0-2.218-.985-2.218-2.195s.995-2.195 2.218-2.195c.723 0 1.36.35 1.766.882.01.024.012.049.025.072.036.061.08.114.13.162.183.32.298.684.298 1.078 0 .43-.13.83-.348 1.17-.002.002-.004.002-.006.005-.003.004-.002.009-.005.013a2.22 2.22 0 0 1-1.86 1.008zM20.265 3.501c1.223 0 2.218.985 2.218 2.195s-.995 2.195-2.218 2.195c-1.223 0-2.218-.985-2.218-2.195 0-1.211.994-2.195 2.218-2.195z"/>
</svg>
