<svg xmlns="http://www.w3.org/2000/svg" width="28" height="28" viewBox="0 0 28 28">
    <g fill="#555" fill-rule="evenodd">
        <path d="M2.86 8.843c.475 0 .86-.354.86-.789V4.692L9.26 9.77a.898.898 0 0 0 .607.231c.22 0 .44-.077.608-.231a.743.743 0 0 0 0-1.115L4.936 3.577h3.667c.476 0 .86-.353.86-.789 0-.435-.384-.788-.86-.788H2.86c-.475 0-.86.353-.86.788v5.266c0 .435.385.789.86.789zM25.156 18.451a.857.857 0 0 0-.843.87v3.71l-5.6-5.776a.825.825 0 0 0-1.193 0c-.33.34-.33.89 0 1.23l5.6 5.775h-3.597a.857.857 0 0 0-.843.87c0 .48.377.87.843.87h5.633c.466 0 .844-.39.844-.87v-5.81c0-.48-.378-.869-.844-.869zM9.287 17.255l-5.6 5.775v-3.71c0-.48-.377-.87-.843-.87a.857.857 0 0 0-.844.87v5.81c0 .48.378.87.844.87h5.633c.466 0 .843-.39.843-.87s-.377-.87-.843-.87H4.88l5.6-5.775c.33-.34.33-.89 0-1.23a.826.826 0 0 0-1.193 0zM25.14 2h-5.744c-.475 0-.86.353-.86.788 0 .436.385.789.86.789h3.667l-5.538 5.077a.742.742 0 0 0 0 1.115.899.899 0 0 0 .608.231c.22 0 .44-.077.608-.231l5.539-5.077v3.362c0 .435.385.788.86.788s.86-.353.86-.788V2.788c0-.435-.385-.788-.86-.788z"/>
    </g>
</svg>
