<svg xmlns="http://www.w3.org/2000/svg" width="28" height="28" viewBox="0 0 28 28">
    <g fill="#CCC" fill-rule="nonzero">
        <path d="M2.363 8.649v8.929a11.735 11.735 0 0 1 5.159-4.137c.761-.318 1.564-.56 2.387-.721a12.759 12.759 0 0 1 3.166-.218V8.649c0-.61-.494-1.104-1.104-1.104H3.467c-.61 0-1.104.494-1.104 1.104z"/>
        <path d="M23.411 22.954a2.466 2.466 0 0 1-.698-.69 9.686 9.686 0 0 1-.392-.632c.008.356 0 .635-.008.743-.036.497-.166.889-.398 1.203-.243.329-.59.56-1.035.685l-.036.01-.013.004c-.323.085-.663.113-.991.14-.323.028-.63.053-.914.125a.957.957 0 0 1-1.082-.47c-.14-.256-.331-.497-.535-.75-.318-.4-.646-.812-.779-1.325-.162-.627.014-1.24.522-1.816-.235.06-.46.09-.668.09a1.78 1.78 0 0 1-1.427-.667c-.276-.331-.45-.729-.615-1.113-.13-.298-.252-.58-.412-.825a.96.96 0 0 1 .097-1.176c.199-.215.364-.474.541-.748.359-.554.765-1.187 1.499-1.39.152-.042.312-.064.474-.064.18 0 .362.025.552.077a2.047 2.047 0 0 1-.14-.323c-.42-.174-.85-.32-1.287-.439-.85-.232-1.72-.367-2.591-.414-.24-.014-.478-.019-.718-.019-3.088 0-6.254 1.184-8.534 3.682a12.013 12.013 0 0 0-1.457 2.001c-1.38 2.363-2.159 5.473-.061 7.483.406.389.897.648 1.427.648h17.25c1.985 0 2.636-1.943 2.595-3.938a1.608 1.608 0 0 1-.166-.092zm-20.427-.623c.188-1.005.585-1.966 1.096-2.846a9.624 9.624 0 0 1 5.967-4.582c.878-.229 1.824-.328 2.735-.232.135.014.169.2.044.257 0 0-.002 0-.002.003-.224.105-.45.201-.674.306-.442.207-.88.425-1.308.66a16.629 16.629 0 0 0-2.451 1.615 16.357 16.357 0 0 0-3.527 3.872 14.07 14.07 0 0 0-1.571 3.265c-.041.13-.226.133-.27.003v-.003c-.238-.726-.177-1.581-.04-2.318zM19.964 13.645h.005c.009 0 .011.008.014.01l.828 2.076.025.061a.34.34 0 0 0 .4.199.325.325 0 0 0 .194-.15c.433-.73.618-2.409.629-2.82.041-1.264-.798-1.422-1.687-1.587-.334-.064-.679-.127-1.01-.251a.28.28 0 0 0-.094-.017.266.266 0 0 0-.22.119c-.2.29-.448.54-.685.784-.45.46-.883.9-.822 1.482.013.14.058.287.135.444.052.108.124.221.212.34.047.06.122.154.218.27.428.502 1.281 1.397 1.91 1.681a.343.343 0 0 0 .221.02.335.335 0 0 0 .235-.397l-.006-.018-.135-.58-.384-1.641c.003-.012 0-.023.017-.025zM25.815 18.31c-.312-.092-1.418-.33-2.277-.33-.223 0-.428.017-.599.056a.317.317 0 0 0-.168.1.333.333 0 0 0 .033.48l.453.375 1.316 1.096c.009.005.009.01.006.014a.028.028 0 0 1-.014.016h-.003c-.003 0-.005 0-.01-.003l-1.063-.643-.544-.331-.359-.218a.324.324 0 0 0-.171-.05h-.006c-.027 0-.055.006-.082.011a.334.334 0 0 0-.243.356c.094.845.96 2.294 1.198 2.63.077.108.154.202.234.285.119.121.243.215.376.279a.995.995 0 0 0 .46.105c.125 0 .257-.02.395-.058.27-.075.547-.213.836-.356.304-.152.619-.307.958-.409a.27.27 0 0 0 .193-.27c-.013-.35.03-.701.075-1.038.11-.9.218-1.747-.994-2.098zM26.768 13.876a.265.265 0 0 0-.194-.267c-.336-.1-.654-.254-.957-.403-.428-.21-.834-.409-1.229-.409a.995.995 0 0 0-.284.039c-.287.08-.546.287-.787.635-.234.336-1.093 1.791-1.184 2.636a.332.332 0 0 0 .503.317l1.96-1.203c.002-.003.005-.003.005-.003h.003c.008 0 .013.01.013.01.006.012 0 .017-.005.02l-1.761 1.48a.332.332 0 0 0 .14.576c.17.036.368.053.575.053.337 0 .695-.036.985-.077.59-.083 1.093-.2 1.278-.252.014-.002.028-.008.039-.01 1.211-.36 1.098-1.207.977-2.101-.044-.342-.091-.69-.077-1.04z"/>
        <path d="M16.539 14.98c-.102 0-.2.014-.29.04-.483.134-.784.604-1.104 1.1-.185.287-.376.583-.613.842a.274.274 0 0 0-.028.331c.194.296.332.616.47.93.303.699.593 1.367 1.41 1.367.152 0 .32-.022.513-.072.012-.003.025-.005.04-.011a11.2 11.2 0 0 0 1.222-.444c.436-.188 1.024-.475 1.347-.784a.332.332 0 0 0 .088-.337.332.332 0 0 0-.265-.229l-2.271-.356c-.009 0-.014-.003-.014-.014 0 0 0-.016.01-.02h.01l2.298.017h.003c.03 0 .06-.002.091-.01a.33.33 0 0 0 .224-.216.324.324 0 0 0-.05-.304c-.513-.679-2.001-1.479-2.374-1.645a1.676 1.676 0 0 0-.717-.184zM21.92 18.094c.08-.108.142-.23.172-.364a.933.933 0 0 0-.91-1.14h-.006a.814.814 0 0 0-.114.008.931.931 0 0 0-.811 1.043.933.933 0 0 0 1.67.453zM18.449 23.747a.27.27 0 0 0 .306.132c.34-.088.69-.116 1.03-.143.325-.028.632-.053.9-.127.598-.166.888-.56.94-1.278.03-.409.023-2.098-.333-2.87a.33.33 0 0 0-.392-.177.33.33 0 0 0-.205.165l-1.068 2.037c-.003.008-.008.008-.008.008h-.003c-.005 0-.014-.002-.016-.008-.003-.003-.006-.005-.003-.017l.753-2.172a.33.33 0 0 0-.071-.336.326.326 0 0 0-.345-.089c-.806.268-2.043 1.419-2.322 1.72-.858.93-.325 1.598.238 2.304.212.265.43.541.599.85zM7.367 4.603a.38.38 0 0 1 .679-.003c.243.488.552 1.187.682 1.824 1.39-.808.25-3.596-.503-5.1a.588.588 0 0 0-1.051.002c-.735 1.5-1.841 4.265-.47 5.087.125-.635.426-1.325.663-1.81z"/>
    </g>
</svg>
