<svg xmlns="http://www.w3.org/2000/svg" width="30" height="30" viewBox="0 0 30 30">
    <g fill="none" fill-rule="evenodd">
        <path fill="#555" fill-rule="nonzero" d="M4.828 28.569v-2.456h20.344v2.456a.43.43 0 1 0 .861 0v-2.54h2.536a.431.431 0 0 0 0-.863h-2.536V4.834h2.536a.431.431 0 0 0 0-.863h-2.536v-2.54a.43.43 0 1 0-.86 0v2.54H4.827v-2.54a.43.43 0 1 0-.861 0v2.54H1.43a.43.43 0 1 0 0 .863h2.497v20.333H1.43a.43.43 0 1 0 0 .862h2.536v2.54a.43.43 0 1 0 .861 0zm-.02-17.17V4.834h6.603v6.565H4.81zm6.89 0V4.834h6.584v6.565H11.7zm6.89 0V4.834h6.584v6.565H18.59zm-13.78 6.902v-6.614h6.603V18.3H4.81zm6.89 0v-6.614h6.585v6.614h-6.584zm6.89 0v-6.614h6.584v6.614H18.59zm-13.78 6.901V18.59h6.604v6.613H4.809zm6.89 0V18.59h6.585v6.613h-6.584zm6.89 0V18.59h6.584v6.613H18.59z"/>
        <path stroke="#555" d="M11.5 11.5h14v14h-14z"/>
        <path stroke="#555" stroke-linecap="square" d="M11.5 25.5l14-14M18.5 24.5l7-6M11.5 18.5l7-6"/>
    </g>
</svg>
