<svg xmlns="http://www.w3.org/2000/svg" width="30" height="30" viewBox="0 0 30 30">
    <path fill="#FFF" fill-rule="nonzero" d="M26.2 1H3.8C2.26 1 1 2.26 1 3.8v22.4C1 27.74 2.26 29 3.8 29h22.4c1.54 0 2.8-1.26 2.8-2.8V3.8C29 2.26 27.74 1 26.2 1zM15 9.4c3.08 0 5.6 2.52 5.6 5.6 0 3.08-2.52 5.6-5.6 5.6-3.08 0-5.6-2.52-5.6-5.6 0-3.08 2.52-5.6 5.6-5.6zM4.5 26.2c-.42 0-.7-.28-.7-.7V13.6h2.94c-.14.42-.14.98-.14 1.4 0 4.62 3.78 8.4 8.4 8.4 4.62 0 8.4-3.78 8.4-8.4 0-.42 0-.98-.14-1.4h2.94v11.9c0 .42-.28.7-.7.7h-21zM26.2 7.3c0 .42-.28.7-.7.7h-2.8c-.42 0-.7-.28-.7-.7V4.5c0-.42.28-.7.7-.7h2.8c.42 0 .7.28.7.7v2.8z"/>
</svg>
