<svg xmlns="http://www.w3.org/2000/svg" width="30" height="30" viewBox="0 0 30 30">
    <path fill="#A6A6A6" fill-rule="nonzero" d="M28.94 13.685a13.955 13.955 0 0 0-3.637-8.173A14.07 14.07 0 0 0 15 1 14.071 14.071 0 0 0 4.697 5.512 13.966 13.966 0 0 0 1 15a13.952 13.952 0 0 0 3.697 9.488h.001A14.068 14.068 0 0 0 15 29c3.897 0 7.652-1.644 10.303-4.512A13.966 13.966 0 0 0 29 15c0-.441-.02-.88-.06-1.315zM5.055 23.023c-.113-.141-.228-.281-.334-.425a12.91 12.91 0 0 1-.359-.52c-.099-.147-.198-.294-.29-.445-.11-.181-.21-.368-.31-.554-.084-.153-.17-.305-.246-.461-.094-.193-.177-.392-.262-.59-.067-.156-.138-.311-.199-.47-.078-.206-.143-.417-.211-.627-.05-.157-.107-.312-.151-.471-.063-.224-.11-.451-.16-.678-.034-.15-.074-.3-.102-.452-.047-.254-.077-.513-.109-.771-.016-.129-.04-.255-.051-.384a12.976 12.976 0 0 1 0-2.35c.012-.13.036-.256.051-.384.032-.258.062-.517.109-.772.028-.152.068-.301.102-.452.05-.226.098-.454.16-.677.044-.16.101-.316.152-.473.068-.21.132-.42.21-.624.062-.16.133-.317.201-.475.084-.196.166-.393.26-.584.077-.158.164-.311.248-.467.1-.184.198-.369.307-.548.093-.153.194-.3.294-.45.115-.173.23-.347.355-.514.108-.146.223-.288.338-.43.086-.107.176-.212.266-.317C8.628 8.121 10.739 11.35 10.739 15c0 3.651-2.111 6.88-5.415 8.342a12.19 12.19 0 0 1-.268-.32zM15 27.783c-3.271 0-6.43-1.273-8.8-3.51 3.524-1.733 5.757-5.279 5.757-9.273 0-3.994-2.233-7.54-5.756-9.272A12.847 12.847 0 0 1 15 2.218c3.271 0 6.43 1.272 8.8 3.51-3.524 1.732-5.757 5.278-5.757 9.272 0 3.994 2.233 7.54 5.756 9.272A12.847 12.847 0 0 1 15 27.782zm12.728-11.608c-.012.13-.036.256-.051.384-.032.258-.062.517-.109.772-.028.152-.068.301-.102.452-.05.226-.098.454-.16.677-.044.16-.101.316-.152.473-.068.21-.132.42-.21.624-.062.16-.133.317-.201.475-.084.196-.166.393-.26.584-.077.158-.164.311-.248.467-.1.184-.198.369-.307.548-.093.153-.194.3-.294.45-.115.173-.23.347-.355.514-.108.146-.223.288-.338.43a13.09 13.09 0 0 1-.266.317c-3.303-1.463-5.414-4.691-5.414-8.342 0-3.651 2.111-6.88 5.415-8.342.091.105.181.211.268.32.113.14.228.28.334.424.126.17.243.345.359.52.099.147.198.294.29.445.11.181.21.368.31.554.084.153.17.305.246.461.094.193.177.392.262.59.067.156.138.311.199.47.078.206.143.417.211.627.05.157.107.312.151.471.063.224.11.451.16.678.034.15.074.3.102.452.047.254.077.513.109.771.016.129.04.255.051.384a12.976 12.976 0 0 1 0 2.35z"/>
</svg>
