<svg xmlns="http://www.w3.org/2000/svg" width="28" height="28" viewBox="0 0 28 28">
    <path fill="#CCC" fill-rule="nonzero" d="M25.362 5.622c-.71-2.062-2.162-3.58-3.98-4.163-3.455-1.108-6.296.316-7.382.998-1.086-.682-3.927-2.106-7.381-.998-1.82.584-3.271 2.102-3.982 4.166-.933 2.714-.463 5.844 1.258 8.373 1.15 1.69 1.901 3.596 2.172 5.513l.045.34c.261 2.022.645 3.645 1.142 4.823.595 1.413 1.362 2.176 2.281 2.268.975.097 1.783-.713 2.405-2.409.434-1.185.777-2.774.964-4.473.105-.95.35-1.718.709-2.223.128-.18.313-.2.387-.2.074 0 .26.02.387.2.36.505.604 1.274.709 2.223.187 1.7.53 3.288.965 4.473.588 1.605 1.343 2.416 2.248 2.416.052 0 .104-.002.156-.007.919-.092 1.687-.855 2.282-2.268.496-1.178.88-2.801 1.14-4.823l.045-.327c.27-1.921 1.023-3.834 2.176-5.531 1.72-2.53 2.188-5.659 1.254-8.37z"/>
</svg>
