<svg xmlns="http://www.w3.org/2000/svg" xmlns:xlink="http://www.w3.org/1999/xlink" width="125" height="124" viewBox="0 0 125 124">
    <defs>
        <filter id="a" width="106.6%" height="106.7%" x="-3.3%" y="-1.7%" filterUnits="objectBoundingBox">
            <feOffset dy="2" in="SourceAlpha" result="shadowOffsetOuter1"/>
            <feGaussianBlur in="shadowOffsetOuter1" result="shadowBlurOuter1" stdDeviation="1"/>
            <feColorMatrix in="shadowBlurOuter1" result="shadowMatrixOuter1" values="0 0 0 0 0.605787628 0 0 0 0 0.605787628 0 0 0 0 0.605787628 0 0 0 0.5 0"/>
            <feMerge>
                <feMergeNode in="shadowMatrixOuter1"/>
                <feMergeNode in="SourceGraphic"/>
            </feMerge>
        </filter>
        <path id="b" d="M.156.005h9.659v11.237H.155z"/>
        <path id="d" d="M.19.228h11.797V9.54H.19z"/>
    </defs>
    <g fill="none" fill-rule="evenodd" filter="url(#a)" transform="translate(2)">
        <path fill="#CBD288" d="M108.987 73.897l.18.103c-.004-.079-.006-.171-.012-.29a27.415 27.415 0 0 0-.11-1.35 24.95 24.95 0 0 0-.27-1.865 21.091 21.091 0 0 0-.695-2.082c-.566-1.382-1.203-2.628-2.112-3.414a6.406 6.406 0 0 0-.616-.505 5.052 5.052 0 0 0-.53-.33c-.15-.089-.283-.137-.369-.18l-.133-.058.137.054c.087.036.226.078.381.162.163.074.349.18.558.309.204.133.43.291.656.483.985.758 1.725 1.988 2.386 3.37.322.686.6 1.402.837 2.091.212.684.307 1.328.412 1.895.097.565.158 1.047.198 1.385l.023.235.166-.318c.02-.04.264-.521.518-1.284.126-.382.254-.833.355-1.33.06-.506.067-1.063.03-1.638-.103-1.23-.398-2.628-1.426-3.803-1.07-1.183-2.712-2.104-5.206-2.472l-.413-.061c-.124-.019-.247.036-.29.128l-.152.322c-.074.068-.592 1.534-.472 3.368.081.914.53 2.042 1.393 3.245.836 1.194 2.255 2.513 4.576 3.83"/>
        <g transform="translate(111 63)">
            <mask id="c" fill="#fff">
                <use xlink:href="#b"/>
            </mask>
            <path fill="#C1CC77" d="M.92 11.238l-.2.004.156-.264a49.924 49.924 0 0 1 1.973-3.001c.388-.655.825-1.35 1.296-2.035.907-1.375 2.097-2.704 2.956-3.555a7.32 7.32 0 0 1 .64-.545c.203-.15.384-.27.54-.355.152-.097.284-.142.37-.186l.133-.062-.136.054c-.088.037-.223.074-.379.162a4.649 4.649 0 0 0-.564.322c-.208.141-.44.308-.676.51-.904.806-2.179 2.09-3.17 3.42a38.439 38.439 0 0 0-1.425 1.968c-.472.627-.909 1.207-1.28 1.702l-.862 1.208a22.7 22.7 0 0 1-.136.201l.021-.37c.003-.046.039-.605.207-1.417.084-.406.201-.876.365-1.381.124-.513.27-1.067.485-1.627.44-1.201 1.251-2.52 2.43-3.637C4.8 1.237 6.457.313 8.864.049l.398-.043c.12-.013.231.076.26.21l.104.477c.011.045.132.621.171 1.514.077.894-.083 2.096-.527 3.36-.45 1.244-1.134 2.666-2.497 3.756-1.39 1.088-3.284 1.863-5.853 1.915" mask="url(#c)"/>
        </g>
        <path fill="#BFCB74" d="M102.636 86.733l.138.154.074-.302c.08-.342.19-.833.299-1.422.053-.294.115-.609.158-.948l.058-1.099c.028-.755.028-1.552-.019-2.335-.054-.788-.112-1.538-.31-2.257-.203-.72-.45-1.366-.732-1.888a6.41 6.41 0 0 0-.417-.687 4.644 4.644 0 0 0-.392-.485c-.112-.133-.222-.218-.288-.285l-.106-.098.111.092c.07.063.185.145.304.272.13.122.27.28.425.47.148.194.31.418.463.678.631 1.029 1.184 2.601 1.308 4.174.163 1.577.229 3.292.057 4.503a30.011 30.011 0 0 1-.228 1.482c-.018.094-.033.177-.048.248l.25-.283c.029-.034.402-.463.865-1.179.467-.713.87-1.803 1.159-3.002a9.187 9.187 0 0 0 .235-2.083c-.014-.733-.218-1.529-.525-2.278-.635-1.513-1.88-2.91-4.086-3.971l-.365-.176c-.111-.052-.243-.03-.311.053l-.24.289c-.025.026-.311.375-.61.962a6.588 6.588 0 0 0-.426 1.056c-.119.41-.216.875-.328 1.357-.187.975-.172 2.225.351 3.747.522 1.518 1.379 3.228 3.176 5.24M105.614 87.612l-.196-.05.228-.206a38.63 38.63 0 0 1 1.12-.958c.238-.194.497-.406.771-.632.257-.233.527-.48.808-.739a38.56 38.56 0 0 1 1.857-1.558c.644-.524 1.373-1.006 2-1.461.623-.459 1.24-.852 1.804-1.129.28-.142.545-.253.785-.342.239-.086.45-.153.628-.19.176-.05.317-.059.413-.077l.147-.022-.147.013c-.096.012-.238.01-.417.052a4.96 4.96 0 0 0-.64.154 7.698 7.698 0 0 0-.81.298c-1.168.497-2.546 1.454-3.974 2.405-1.414.958-2.6 2.032-3.613 2.76l-1.187.9c-.073.058-.136.108-.191.154l.129-.343c.015-.041.212-.555.61-1.27.404-.715.855-1.71 1.617-2.637.398-.5.877-1.01 1.45-1.484.567-.475 1.138-.95 1.869-1.32 1.436-.745 3.32-1.174 5.734-.782l.4.066c.121.02.202.132.19.268l-.04.475a9.153 9.153 0 0 1-.281 1.47c-.113.425-.27.919-.485 1.447-.21.53-.484 1.09-.897 1.616-.783 1.056-1.922 2.177-3.483 2.877-1.565.698-3.705.875-6.2.245M94.815 97.509l.097.184c.044-.07.093-.155.158-.26.175-.3.421-.728.694-1.247.476-1.108 1.019-2.61 1.364-4.096.197-.727.263-1.514.256-2.25-.001-.73-.066-1.403-.2-1.968a6.002 6.002 0 0 0-.227-.76 4.331 4.331 0 0 0-.257-.564c-.075-.157-.16-.268-.208-.347-.05-.079-.079-.12-.079-.12l.086.116c.052.078.145.186.229.34.094.149.192.337.292.558.096.222.195.479.276.763.17.57.276 1.254.32 2 .038.742.042 1.573-.115 2.322-.259 1.54-.735 3.1-1.153 4.27-.226.569-.469 1.009-.628 1.332l-.116.218.329-.194c.028-.035.556-.295 1.171-.882.605-.596 1.36-1.458 1.97-2.51.697-1.09 1.08-2.625.867-4.211-.212-1.594-1.066-3.248-2.988-4.862l-.322-.27a.28.28 0 0 0-.322-.036l-.323.202c-.07.048-1.537.953-2.284 2.816-.924 1.703-1.274 4.776 1.113 9.456M96.427 99.49l-.18-.104.287-.142c.328-.158.804-.381 1.389-.636 1.1-.582 2.598-1.348 4.21-2.004l2.349-.946c.752-.28 1.48-.498 2.122-.616.318-.064.613-.1.876-.122.263-.018.493-.025.68-.013.19-.001.332.03.432.039l.153.019-.151-.029c-.098-.015-.238-.055-.427-.064a5.335 5.335 0 0 0-.681-.026 7.987 7.987 0 0 0-.89.072c-.652.082-1.399.262-2.174.502-.781.236-1.56.557-2.41.83a46.499 46.499 0 0 0-4.348 1.774c-.593.239-1.085.435-1.43.573l-.234.098.228-.304c.017-.048.395-.467.951-1.112a12.615 12.615 0 0 1 2.348-2.194c1.127-.738 2.404-1.57 4.056-1.911 1.644-.34 3.637-.239 5.91.819l.372.173a.25.25 0 0 1 .114.323l-.178.46c-.018.044-.238.599-.713 1.38a12.17 12.17 0 0 1-2.219 2.696c-2.165 1.661-5.758 3.232-10.442.465M83.381 104.332l.04.197c.059-.055.127-.117.213-.2.244-.22.58-.558.932-1.028.723-.908 1.62-2.147 2.328-3.435.656-1.373 1.072-2.836 1.126-3.95a5.55 5.55 0 0 0-.005-.763 4.228 4.228 0 0 0-.086-.59c-.027-.163-.076-.288-.099-.375a12.68 12.68 0 0 1-.04-.133l.047.13c.028.087.085.212.12.376.047.163.087.362.12.594.029.23.051.494.05.778.013 1.145-.337 2.65-.917 4.114-.64 1.363-1.49 2.675-2.18 3.65-.345.49-.649.896-.891 1.132a14.38 14.38 0 0 0-.164.171l.353-.092c.1.026 2.05-.75 3.74-2.372.896-.866 1.628-2.224 1.868-3.73a6.221 6.221 0 0 0-.141-2.47c-.233-.895-.687-1.868-1.358-2.877l-.224-.336c-.068-.101-.186-.147-.28-.11l-.327.13c-.048.064-1.657.484-2.83 2.015-.147.19-.292.4-.432.635a6.238 6.238 0 0 0-.44.703 7.234 7.234 0 0 0-.672 1.874c-.32 1.476-.343 3.472.15 5.962M85.197 107.055l-.149-.143.326-.052c.375-.05.907-.134 1.525-.276 1.25-.254 2.96-.553 4.745-.732 1.714-.277 3.494-.444 4.839-.322.334.025.637.071.905.118.265.051.494.107.677.167.188.047.32.114.416.147.096.036.147.057.147.057l-.14-.065c-.094-.038-.222-.113-.407-.17a5.61 5.61 0 0 0-.667-.202 8.725 8.725 0 0 0-.903-.167c-1.343-.189-3.163-.13-4.89.076a53.94 53.94 0 0 0-4.817.485c-.636.092-1.154.186-1.544.21l-.26.027.313-.219c.109-.014 1.76-1.453 4.176-2.224 1.297-.42 2.777-.885 4.526-.745a9.342 9.342 0 0 1 2.733.607c.936.353 1.882.859 2.85 1.638l.32.255c.097.077.11.218.03.334l-.284.404c-.019.102-1.518 1.837-4.049 2.997-.312.14-.646.275-.997.393-.367.1-.756.18-1.161.238-.807.121-1.679.151-2.585.04-1.815-.223-3.74-.998-5.675-2.876M71.014 109.172l-.014.215.274-.163a31.914 31.914 0 0 0 2.95-2.025c.593-.461 1.206-.944 1.732-1.58 1.084-1.198 1.954-2.516 2.334-3.615a5.9 5.9 0 0 0 .218-.763 4.32 4.32 0 0 0 .07-.645c.015-.18 0-.324-.002-.422a6.539 6.539 0 0 0-.006-.152l.015.152c.004.098.029.242.021.426.006.184-.007.405-.034.66-.036.241-.09.509-.175.793-.321 1.145-1.13 2.544-2.166 3.831-.257.319-.523.65-.802.942-.288.273-.577.537-.867.788A30.62 30.62 0 0 1 71.436 110l.388-.021c.046-.002.632-.034 1.493-.208.855-.187 2.008-.463 3.105-1.074 1.152-.72 2.347-1.768 3.031-3.229.17-.365.309-.754.407-1.171.09-.443.138-.91.14-1.404.006-.988-.176-2.08-.587-3.297l-.136-.4c-.042-.123-.153-.204-.262-.195l-.381.032c-.042-.007-.486.064-1.144.23-.67.138-1.53.414-2.379.996a6.64 6.64 0 0 0-1.276 1.156 7.348 7.348 0 0 0-1.251 1.664c-.768 1.377-1.382 3.336-1.57 6.093M71.095 112.18l-.095-.17.307.009c.349.014.852.039 1.462.085.609.046 1.326.11 2.103.202.776.09 1.62.23 2.434.288 1.644.162 3.332.486 4.53.95.302.109.567.232.8.347.227.112.415.208.563.306.157.086.257.18.336.234l.115.086-.11-.093c-.073-.059-.168-.158-.318-.255a4.685 4.685 0 0 0-.545-.337 8.986 8.986 0 0 0-.782-.392c-1.18-.53-2.869-.95-4.513-1.207a645.09 645.09 0 0 0-1.225-.184c-.412-.076-.815-.153-1.203-.225a51.517 51.517 0 0 0-3.567-.495c-.092-.01-.173-.016-.242-.023l.34-.158c.087-.05 2.025-.902 4.44-1.056 1.271-.171 2.788-.141 4.348.423.39.142.782.315 1.172.53.382.19.764.42 1.14.7.752.556 1.487 1.299 2.157 2.285l.222.326c.067.098.039.237-.067.326l-.374.312c-.04.023-.482.425-1.27.838-.802.383-1.937.819-3.259 1.034a9.842 9.842 0 0 1-2.131.12 8.726 8.726 0 0 1-2.383-.644c-1.603-.69-3.16-1.965-4.385-4.161M57.067 110.706l-.067.2c.077-.02.17-.046.285-.075a27.3 27.3 0 0 0 1.328-.397c.541-.182 1.165-.386 1.809-.67a22.322 22.322 0 0 0 1.946-1.125c1.27-.85 2.396-1.74 3.004-2.795.157-.25.281-.494.385-.712.099-.22.176-.419.227-.588.06-.166.082-.307.108-.398.02-.093.033-.144.033-.144l-.027.147c-.02.092-.036.236-.09.407-.042.174-.11.378-.2.61a6.594 6.594 0 0 1-.355.745c-.567 1.126-1.657 2.113-2.907 3.053-.624.463-1.285.889-1.928 1.267-.643.375-1.266.59-1.812.818-.545.213-1.013.377-1.345.487-.086.028-.161.053-.228.073l.35.095c.042.011.57.148 1.38.233.406.04.88.076 1.396.059a10.203 10.203 0 0 0 1.64-.328c1.208-.364 2.548-.952 3.523-2.21.976-1.297 1.579-3.098 1.464-5.614l-.017-.416c-.007-.127-.084-.236-.184-.258l-.35-.078a4.823 4.823 0 0 0-1.078-.091c-.621.053-1.462.054-2.371.349-.902.28-1.944.944-2.979 2.067-1.034 1.07-2.077 2.739-2.94 5.29M57.046 112.96l-.046-.193c.082.027.177.058.298.1a43 43 0 0 1 1.406.507l1.998.798c.733.245 1.516.53 2.299.85 1.56.604 3.128 1.494 4.158 2.155.261.172.486.349.68.51.188.167.347.318.464.453.13.127.202.245.263.32.059.075.088.116.088.116s-.027-.043-.08-.121c-.056-.078-.12-.2-.24-.334a4.795 4.795 0 0 0-.439-.48 7.339 7.339 0 0 0-.65-.554c-.994-.714-2.534-1.692-4.069-2.39a41.216 41.216 0 0 0-2.259-.987c-.72-.292-1.392-.65-1.964-.893l-1.384-.594a22.011 22.011 0 0 1-.232-.093l.377-.051c.045-.007.61-.082 1.456-.079.424-.001.917.025 1.456.075.538.007 1.122.047 1.726.144 1.291.185 2.774.709 4.134 1.626 1.35.878 2.618 2.297 3.378 4.572l.125.378c.038.114-.028.237-.158.293l-.454.195c-.045.017-.596.25-1.483.463-.88.254-2.113.337-3.465.158-1.333-.184-2.894-.579-4.263-1.66-1.37-1.129-2.535-2.81-3.12-5.284M44.12 107.592l-.12.176.303.02c.346.015.84.031 1.426.028 1.186-.048 2.783-.324 4.259-.724 1.472-.337 2.89-1.193 3.766-1.972.224-.195.413-.395.573-.577.159-.189.29-.36.385-.511.104-.145.163-.276.213-.36l.07-.131-.065.136c-.044.085-.098.223-.197.375-.089.16-.211.34-.363.54a6.348 6.348 0 0 1-.552.624c-.43.436-.988.869-1.633 1.273-.649.431-1.366.75-2.107.988a23.89 23.89 0 0 1-4.323 1.017c-.599.037-1.107.05-1.466.053h-.247l.322.207c.04.02.526.338 1.312.67.806.258 1.918.528 3.135.571.65.018 1.346-.006 2.051-.184a7.004 7.004 0 0 0 2.082-1.044c1.32-.973 2.402-2.565 2.956-5.099l.092-.418c.028-.128-.02-.262-.115-.317l-.328-.196c-.072-.053-1.555-.89-3.54-.712-1.936-.012-4.812 1.135-7.89 5.567M43.024 110.71l.01-.196c.07.048.153.106.26.178.292.207.712.507 1.213.884 1.012.714 2.404 1.593 3.736 2.665 1.326 1.105 2.66 2.095 3.463 3.083.205.238.373.47.516.68.137.21.249.401.325.563.089.157.126.29.166.38l.054.134s-.017-.047-.046-.137c-.033-.09-.062-.225-.14-.387a4.573 4.573 0 0 0-.292-.582 7.33 7.33 0 0 0-.476-.712c-.376-.51-.882-1.054-1.456-1.596l-1.852-1.687c-1.283-1.142-2.613-2.132-3.599-2.865l-1.17-.962-.196-.153.378.056c.047.004.61.1 1.43.33.842.167 1.939.461 3.054.99.598.276 1.218.651 1.827 1.084.62.392 1.218.883 1.753 1.494 1.065 1.224 1.9 2.938 2.001 5.32l.017.394c.005.119-.094.218-.236.234l-.495.056c-.048.007-.648.072-1.569.025-.915-.059-2.166-.178-3.44-.673-2.5-1.079-5.56-3.429-5.236-8.6M32.328 101.197l-.162.13c.079.027.17.06.287.102.328.11.785.283 1.39.383 1.187.237 2.762.48 4.288.524 1.57-.02 3.128-.347 4.176-.816a5.79 5.79 0 0 0 .7-.365c.2-.127.37-.245.501-.359.139-.1.23-.205.298-.267l.103-.101s-.033.039-.097.108c-.068.064-.154.175-.288.287-.127.12-.292.25-.49.39-.198.134-.43.28-.692.414-1.047.547-2.607.949-4.227 1.09-1.559.047-3.181-.114-4.413-.292-.623-.077-1.13-.187-1.464-.298l-.238-.07.256.281c.01.123 1.673 1.54 3.982 2.336.603.23 1.318.33 2.062.326a6.94 6.94 0 0 0 2.269-.358c1.518-.508 2.971-1.655 4.193-3.884l.2-.365c.06-.11.047-.241-.031-.309l-.28-.239c-.065-.047-1.238-1.3-3.21-1.662-.502-.072-1.041-.164-1.646-.182a7.46 7.46 0 0 0-2.053.265c-1.52.41-3.354 1.305-5.414 2.93M29.632 103.587l.066-.203.194.26c.222.297.521.747.93 1.216a45.66 45.66 0 0 1 2.8 3.811c1.01 1.395 1.971 2.86 2.456 4.105.126.307.22.595.295.854.071.258.123.486.15.676.039.19.036.338.049.439l.012.158-.003-.157c-.007-.102.006-.249-.023-.44a5.491 5.491 0 0 0-.11-.686 8.402 8.402 0 0 0-.25-.875c-.424-1.276-1.298-2.834-2.252-4.267a47.626 47.626 0 0 0-2.601-3.998c-.376-.503-.68-.936-.876-1.265a15.855 15.855 0 0 1-.142-.215l.341.168c.05.106 2.134.841 3.927 2.59.473.488.997.978 1.474 1.562.474.588.903 1.27 1.236 2.061.659 1.582.96 3.596.405 6.02l-.096.407c-.028.123-.154.204-.298.19l-.502-.048c-.052.002-.639-.115-1.5-.43a12.175 12.175 0 0 1-3.093-1.677c-.553-.39-1.079-.937-1.546-1.598a8.89 8.89 0 0 1-1.19-2.252c-.61-1.695-.733-3.79.147-6.406M21.55 92.421l-.19.082.243.18c.3.182.741.432 1.27.713 1.076.544 2.45 1.272 3.958 1.671 1.531.38 3.071.528 4.202.355.284-.038.54-.1.766-.16.224-.066.418-.136.581-.219.165-.068.285-.149.37-.192.083-.05.128-.074.128-.074l-.125.08c-.084.048-.2.136-.363.212-.16.09-.359.18-.581.258a5.938 5.938 0 0 1-.771.208c-1.147.246-2.727.188-4.315-.115-1.587-.293-3.013-.969-4.154-1.463a31.118 31.118 0 0 1-1.35-.662c-.083-.046-.16-.082-.219-.121-.007.004.188.324.188.324.023.039.314.523.853 1.18.538.656 1.326 1.487 2.313 2.186 1.14.66 2.59 1.207 4.17 1.129 1.556-.042 3.361-.891 5.1-2.687l.29-.298c.09-.092.112-.224.055-.314l-.198-.312c-.008-.044-.283-.375-.7-.89a6.17 6.17 0 0 0-1.936-1.588c-.434-.237-.981-.416-1.565-.588a7.13 7.13 0 0 0-2.017-.314c-1.54-.036-3.555.355-6.004 1.419M19.88 94.362l.122-.172.12.299.635 1.35c.526 1.119 1.123 2.73 1.734 4.317.646 1.551 1.156 3.22 1.296 4.517.04.322.052.619.055.882a7.95 7.95 0 0 1-.033.665c-.007.182-.048.318-.062.414l-.027.145.037-.142c.02-.094.07-.228.089-.409a7.065 7.065 0 0 0 .068-1.552c-.067-1.313-.485-3.027-1.039-4.625-.547-1.607-1.034-3.28-1.498-4.426a38.829 38.829 0 0 0-.555-1.396c-.035-.086-.072-.158-.095-.229-.005.004.315.23.315.23.084.063 1.885 1.362 3.177 3.49.786 1.057 1.498 2.433 1.715 4.101.186 1.698.037 3.541-1.216 5.705l-.206.356c-.063.108-.208.148-.345.095l-.482-.185c-.035-.033-.653-.217-1.409-.755a12.404 12.404 0 0 1-2.577-2.425c-.412-.542-.843-1.138-1.135-1.87a8.49 8.49 0 0 1-.547-2.443c-.113-1.774.317-3.754 1.864-5.937M14.71 80.184l-.207.027.207.212a30 30 0 0 0 1.008.957c.873.758 1.942 1.771 3.352 2.461 1.347.73 2.763 1.254 3.883 1.388.295.027.569.03.81.025.245-.01.455-.029.63-.057.175-.02.309-.06.401-.078l.143-.033-.141.039c-.091.022-.225.07-.4.098a5.408 5.408 0 0 1-.636.089c-.245.018-.526.03-.828.016-1.166-.065-2.637-.524-4.061-1.197-1.48-.637-2.671-1.586-3.597-2.326A29.058 29.058 0 0 1 14 80.708l.093.336c.01.04.152.547.48 1.27.165.362.375.777.637 1.212.253.44.577.89 1.017 1.293.901.878 2.124 1.735 3.643 2.067 1.575.303 3.482.028 5.63-1.135l.356-.193c.109-.058.165-.172.136-.266l-.1-.33c-.011-.033-.134-.43-.45-.956-.315-.529-.696-1.261-1.423-1.894-1.509-1.215-3.938-2.622-9.309-1.928M11.429 82.141l.15-.137.051.32c.054.366.128.893.201 1.535.17 1.267.234 3.07.44 4.781.158 1.742.166 3.56-.058 4.903-.035.324-.09.617-.146.873a5.16 5.16 0 0 1-.19.65c-.056.182-.13.306-.166.398l-.064.14.072-.135c.042-.087.123-.209.188-.385.078-.17.153-.387.228-.638a8.05 8.05 0 0 0 .197-.868c.282-1.33.379-3.178.311-4.938-.108-1.736-.114-3.537-.198-4.828a48.188 48.188 0 0 0-.117-1.557L12.303 82l.223.318c.026.038.357.515.75 1.288.195.387.407.847.605 1.366l.594 1.688c.415 1.28.68 2.86.425 4.6-.208 1.7-.868 3.54-2.561 5.37l-.28.3c-.084.093-.224.093-.334.001l-.38-.317c-.036-.033-.495-.42-1.09-1.124-.589-.705-1.199-1.814-1.68-3.127-1.033-2.549-.996-6.746 2.854-10.222M10.846 67.029L10.644 67c.034.076.076.162.128.273.15.31.369.75.646 1.26.289.51.593 1.1 1.014 1.69.448.584.942 1.181 1.462 1.736 1.048 1.116 2.153 2.059 3.285 2.46.266.108.52.185.75.245.228.057.432.094.603.112.168.027.306.022.398.029.094.002.143.005.143.005l-.143.001c-.093-.001-.232.011-.404-.008a4.503 4.503 0 0 1-.619-.08 6.188 6.188 0 0 1-.777-.21c-1.174-.348-2.387-1.228-3.51-2.309a23.443 23.443 0 0 1-1.591-1.69c-.505-.57-.822-1.16-1.155-1.663a30.883 30.883 0 0 1-.735-1.26l-.117-.216-.017.372c-.003.045-.026.604.06 1.439.048.416.097.904.236 1.418.164.508.375 1.05.643 1.588.604 1.144 1.396 2.389 2.835 3.103 1.429.726 3.256.972 5.617.352l.39-.101c.12-.032.206-.132.209-.238L20 74.94c0-.037.004-.479-.131-1.106a6.965 6.965 0 0 0-.327-1.061 5.88 5.88 0 0 0-.506-1.25c-.45-.85-1.277-1.766-2.572-2.582-1.227-.826-3.022-1.547-5.618-1.912M7.261 68.084L7.438 68l-.04.311c-.045.354-.117.864-.22 1.48-.107.616-.236 1.34-.374 2.119-.096.77-.22 1.597-.38 2.43a27.303 27.303 0 0 1-1.247 4.518 7.512 7.512 0 0 1-.36.773 5.023 5.023 0 0 1-.344.55c-.098.154-.199.25-.258.325l-.094.112.1-.103c.064-.072.17-.162.275-.309a4.77 4.77 0 0 0 .377-.528c.131-.219.273-.468.405-.755.505-1.125 1.093-2.822 1.492-4.479.204-.83.375-1.653.517-2.419.125-.762.354-1.495.474-2.105l.305-1.479.045-.244.12.357c.016.044.195.58.353 1.408.086.413.14.904.212 1.437.097.529.168 1.107.19 1.718.077 1.3-.178 2.873-.75 4.38-.585 1.509-1.703 3.047-3.735 4.272l-.336.201c-.103.063-.234.024-.311-.092l-.272-.405a9.946 9.946 0 0 1-.724-1.352 11.793 11.793 0 0 1-.554-1.466 12.382 12.382 0 0 1-.28-1.891c-.081-1.345.015-2.962.77-4.524.822-1.578 2.209-3.068 4.467-4.156M11.356 54.084L11.178 54c.012.083.023.18.04.304.05.345.127.837.238 1.417.315 1.17.818 2.693 1.454 4.077.57 1.394 1.609 2.632 2.446 3.348.214.183.425.332.616.456.193.12.368.215.519.28.146.075.274.109.355.141l.129.045s-.046-.012-.131-.038c-.083-.028-.216-.054-.366-.122a4.172 4.172 0 0 1-.542-.254 5.841 5.841 0 0 1-.652-.426c-.463-.34-.947-.81-1.423-1.369a13.695 13.695 0 0 1-.702-.899c-.198-.319-.39-.653-.568-.996-.73-1.373-1.314-2.898-1.71-4.082-.174-.59-.258-1.087-.335-1.442l-.045-.243-.12.358c0 .046-.23.583-.321 1.433-.078.85-.107 2.004.083 3.217.11.648.246 1.332.554 1.994a7.13 7.13 0 0 0 1.306 1.859c1.102 1.117 2.701 1.877 5.029 1.932l.385.01a.262.262 0 0 0 .257-.176l.109-.364c.03-.081.5-1.718-.045-3.655-.327-1.925-1.924-4.56-6.382-6.72M8.12 53.032L8.333 53c-.036.082-.08.176-.136.298-.158.34-.392.826-.69 1.411-.49 1.178-1.173 2.762-2.02 4.333-.898 1.57-1.645 3.123-2.532 4.142-.21.258-.42.476-.612.665a5.238 5.238 0 0 1-.528.449c-.148.124-.282.19-.366.248l-.133.085.137-.076c.087-.053.225-.11.38-.225.162-.103.348-.245.555-.419a8.32 8.32 0 0 0 .654-.632c.46-.488.931-1.112 1.385-1.808.228-.347.448-.71.666-1.083.25-.374.492-.756.724-1.141a47.081 47.081 0 0 0 2.277-4.238c.317-.575.579-1.051.762-1.386l.122-.23.017.391c.019.05-.011.632-.03 1.51-.002.881-.09 2.046-.418 3.28-.165.66-.45 1.364-.76 2.07a8.401 8.401 0 0 1-1.219 2.085c-1.072 1.336-2.709 2.543-5.204 3.163l-.412.101c-.126.031-.251-.046-.296-.185l-.162-.483c-.016-.048-.207-.635-.348-1.567-.13-.93-.245-2.21-.006-3.593.652-2.732 2.441-6.316 7.982-7.133M14.473 41.141l-.148-.127-.043.291c-.053.327-.044.831-.053 1.413.006 1.172.036 2.702.313 4.169.354 1.498.903 2.897 1.536 3.8.154.227.316.423.465.59.153.165.292.3.42.402.12.111.232.176.301.23.073.05.111.078.111.078l-.115-.072c-.072-.05-.191-.111-.317-.216a4.15 4.15 0 0 1-.45-.385 5.65 5.65 0 0 1-.506-.573c-.699-.881-1.34-2.278-1.782-3.788-.4-1.49-.492-3.04-.568-4.247-.03-.601-.038-1.11-.039-1.467l.02-.239s-.208.298-.2.302c-.022.037-.294.507-.6 1.268-.306.76-.648 1.814-.797 2.983-.095 1.269.123 2.783.862 4.113.38.667.885 1.29 1.605 1.834.74.55 1.656 1.014 2.779 1.37l.371.117c.113.036.23-.005.279-.095l.168-.31c-.026-.087.944-1.441.914-3.383-.055-.982-.14-2.138-.788-3.495-.628-1.345-1.843-2.928-3.738-4.563M11.304 40.094l.205.025-.21.23c-.252.26-.533.664-.932 1.125-.767.935-1.895 2.164-3.08 3.368-1.083 1.233-2.33 2.407-3.414 3.106-.269.178-.526.321-.757.443a5.51 5.51 0 0 1-.617.27c-.172.074-.315.1-.41.13-.096.028-.147.041-.147.041l.148-.031c.097-.025.24-.044.416-.107.18-.052.393-.132.634-.236.239-.108.506-.239.786-.404 1.132-.644 2.461-1.763 3.626-2.94 1.23-1.16 2.461-2.325 3.282-3.22.42-.445.756-.82.988-1.086l.178-.174s-.09.355-.082.359c-.019.097-.366 2.173-1.676 4.197-.636 1.112-1.495 2.33-2.886 3.257a8.893 8.893 0 0 1-2.438 1.14c-.906.282-1.963.443-3.19.408l-.407-.01c-.123-.003-.224-.106-.239-.244l-.053-.483c-.077-.095-.081-2.334 1.068-4.732.518-1.191 1.592-2.433 3.099-3.326 1.53-.886 3.451-1.428 6.108-1.106M22.258 29.374l-.123-.172c-.03.079-.063.172-.106.29a30.43 30.43 0 0 0-.974 3.312c-.079.355-.166.712-.219 1.09-.038.388-.066.78-.084 1.17-.075 1.562.079 3.083.472 4.147.087.264.23.517.343.728.123.212.24.392.348.531.101.147.202.247.263.32l.098.11-.103-.104c-.065-.072-.174-.168-.281-.31a4.974 4.974 0 0 1-.384-.522 5.84 5.84 0 0 1-.396-.727c-.466-1.063-.72-2.607-.73-4.208-.08-1.633.306-3.15.577-4.35A28.554 28.554 0 0 1 21.423 29l-.282.25c-.033.03-.456.408-1 1.057-.518.666-1.262 1.54-1.652 2.705-.43 1.238-.686 2.753-.298 4.27.418 1.54 1.59 3.114 3.708 4.447l.352.223c.107.068.242.063.32-.01l.27-.252c.027-.026.35-.332.71-.874.387-.527.898-1.239 1.173-2.195.467-1.948.716-4.8-2.466-9.247M19.467 26.892l.188.082c-.07.053-.148.117-.25.197a43.1 43.1 0 0 1-1.207.908c-.51.369-1.12.795-1.79 1.237l-1.045.677c-.34.239-.687.483-1.035.73-1.406.963-2.952 1.817-4.198 2.227-.316.104-.573.197-.823.259a4.49 4.49 0 0 1-.643.118c-.18.033-.32.022-.417.027l-.148.005.146.005c.098 0 .237.022.419.002.18-.004.399-.033.65-.077.253-.05.526-.119.836-.213 1.278-.342 2.886-1.115 4.353-1.996 1.424-.914 2.974-1.743 4.023-2.434A39.564 39.564 0 0 0 20 27.667l-.166.36c-.024.113-1.039 2.103-2.786 3.892-.894.995-2.113 1.986-3.713 2.55-1.566.578-3.425.813-5.783.035l-.387-.129c-.119-.038-.185-.174-.16-.321l.094-.515c.008-.05.123-.672.443-1.571.345-.882.985-1.995 1.881-3.066 1.683-2.183 5.287-4.082 10.044-2.01M31.996 20.594l-.07-.201-.18.252c-.205.287-.49.701-.812 1.205a31.12 31.12 0 0 0-1.03 1.737c-.335.659-.613 1.425-.866 2.165-.488 1.514-.827 2.966-.66 4.196.029.298.081.571.134.81.058.24.12.446.185.612.054.169.124.294.161.383l.062.134-.069-.131c-.043-.088-.118-.21-.182-.378a5.025 5.025 0 0 1-.22-.61 6.702 6.702 0 0 1-.179-.82c-.243-1.255.007-2.758.421-4.332.211-.777.474-1.555.752-2.28A30.235 30.235 0 0 1 31.301 20l-.337.163c-.04.02-.548.27-1.245.75-.349.239-.746.537-1.152.89-.41.352-.766.837-1.126 1.334-.739 1.095-1.442 2.452-1.441 4.086.026 1.664.665 3.472 2.324 5.362l.275.313c.084.095.214.13.309.079l.33-.17c.102-.01 1.482-.892 2.608-2.507.266-.419.513-.921.702-1.523.19-.602.312-1.316.406-2.064.153-1.536-.056-3.543-.958-6.119M29.69 17.379l.158.133c-.08.031-.171.069-.289.116-.329.132-.806.315-1.388.52-.583.206-1.273.437-2.03.668-.74.248-1.499.559-2.304.805-1.574.536-3.333.84-4.543.964a6.823 6.823 0 0 1-.845.019 4.428 4.428 0 0 1-.644-.072c-.18-.023-.31-.075-.404-.097l-.143-.039.139.05c.092.027.22.089.398.12.173.05.39.087.641.117.253.025.537.044.85.035 1.218-.053 3.013-.264 4.625-.701a37.663 37.663 0 0 0 2.35-.681 49.33 49.33 0 0 0 3.505-.977L30 18.28l-.251.298c-.03.036-.409.484-1.05 1.055-.321.286-.708.602-1.152.918-.448.312-.891.701-1.419 1.017a9.191 9.191 0 0 1-4.185 1.397c-1.592.156-3.467-.203-5.504-1.627l-.337-.237c-.103-.072-.132-.222-.068-.357l.222-.467c.021-.046.292-.612.83-1.385.51-.801 1.393-1.702 2.534-2.46 1.14-.73 2.552-1.477 4.322-1.431 1.762.03 3.72.67 5.748 2.377M43.95 13.714l-.015-.196c-.07.047-.149.102-.25.173-.281.2-.68.49-1.138.85-.94.668-2.021 1.836-2.928 3.025-.457.592-.86 1.209-1.177 1.804a7.291 7.291 0 0 0-.598 1.8c-.054.275-.08.53-.092.756-.009.227-.005.426.014.591.007.164.042.293.055.382l.024.135s-.01-.047-.032-.135c-.017-.088-.06-.217-.077-.383a4.092 4.092 0 0 1-.048-.6c0-.23.008-.492.047-.773.07-.566.238-1.21.494-1.883.284-.626.655-1.277 1.084-1.908.857-1.245 1.876-2.536 2.798-3.265A28.823 28.823 0 0 1 43.422 13l-.38.054c-.045.006-.618.09-1.444.329-.845.196-1.862.734-2.845 1.435-2.174 1.432-3.978 4.49-1.693 8.677l.186.35a.29.29 0 0 0 .286.152l.376-.064c.037-.005.489-.084 1.1-.329.616-.239 1.36-.695 2.15-1.26.761-.595 1.533-1.513 2.063-2.938.563-1.342.916-3.158.729-5.692M42.874 10.94l.126.162-.326.023c-.37.021-.907.048-1.559.065-1.324-.02-3.016.16-4.79.158-.885.005-1.783-.03-2.63-.106-.829-.05-1.585-.104-2.234-.241a7.989 7.989 0 0 1-.87-.216 5.346 5.346 0 0 1-.64-.242c-.177-.07-.297-.152-.387-.196l-.136-.075.13.082c.086.05.202.14.374.218.165.091.376.183.625.28.25.09.537.186.859.265.643.17 1.412.283 2.233.355.85.121 1.755.203 2.646.245 1.796.115 3.483-.008 4.82.087l1.576.023.258-.003-.337.192c-.08.073-2.041 1.047-4.467 1.69-2.685.491-6.355.808-9.807-2.827l-.28-.301c-.086-.092-.076-.232.026-.334l.353-.353c.033-.034.46-.458 1.218-.994.76-.527 1.823-1.217 3.214-1.537 1.348-.354 3.033-.537 4.775-.122 1.781.495 3.62 1.63 5.23 3.703M56.96 11.022l.04-.207c-.073.029-.16.061-.27.105-.305.123-.738.304-1.244.539a23.934 23.934 0 0 0-3.422 2.375c-.284.238-.56.487-.818.739-.255.273-.49.574-.707.862a9.074 9.074 0 0 0-1.022 1.691 6.44 6.44 0 0 0-.288.749c-.07.23-.12.435-.149.61-.038.17-.042.313-.055.408l-.016.145.01-.148c.007-.095.005-.24.035-.414.02-.179.061-.39.12-.63.063-.236.143-.502.254-.779.215-.563.543-1.174.955-1.793.206-.311.432-.624.676-.932.246-.293.514-.551.79-.816 1.102-1.055 2.374-1.987 3.373-2.648.502-.306.94-.495 1.248-.65l.213-.097-.353-.057c-.04.009-.578-.125-1.372-.052-.79.09-1.85.293-2.917.738-.566.255-1.167.522-1.705 1.004a7.05 7.05 0 0 0-1.426 1.766c-.793 1.402-1.157 3.26-.728 5.753l.072.413c.021.126.111.226.212.239l.354.044c.08.01 1.668.202 3.313-.79 1.683-.733 3.757-2.972 4.826-8.167M56.927 8.44l.073.202-.314-.074a46.35 46.35 0 0 1-1.493-.395c-1.23-.245-2.89-.6-4.568-1.119-.42-.126-.84-.264-1.253-.41-.409-.127-.806-.238-1.19-.37-.768-.26-1.475-.555-2.05-.875a8.213 8.213 0 0 1-.764-.469 5.307 5.307 0 0 1-.537-.429c-.15-.122-.241-.24-.313-.312l-.108-.114s.034.043.1.12c.067.075.152.2.293.33.13.138.304.293.514.462.211.165.458.345.74.517.562.357 1.26.695 2.017 1.003l2.418.913a46.34 46.34 0 0 0 4.53 1.393l1.481.473.246.073-.372.096c-.044.028-.61.116-1.458.275-.849.175-1.985.325-3.238.25-.667-.025-1.404-.179-2.14-.322a8.157 8.157 0 0 1-2.249-.783c-1.5-.79-2.992-2.16-4.09-4.496l-.18-.388c-.055-.116-.005-.257.12-.33l.434-.256c.043-.026.57-.335 1.44-.662.87-.321 2.086-.68 3.463-.743 2.763.09 6.57 1.132 8.448 6.44M70.907 11.614l.093-.176c-.08 0-.176.014-.296.032-.34.05-.823.13-1.393.244-1.144.25-2.623.54-4.002 1.165-1.388.657-2.64 1.492-3.388 2.316-.19.202-.347.405-.478.589-.13.188-.232.359-.305.508-.084.143-.125.27-.161.352l-.053.132.046-.136c.032-.083.068-.216.143-.365.066-.155.162-.334.281-.533.125-.196.273-.411.454-.63.715-.885 1.943-1.814 3.326-2.562.691-.411 1.4-.637 2.09-.877a29.916 29.916 0 0 1 3.354-.892l.24-.047-.342-.126c-.04-.013-.555-.199-1.362-.361a11.876 11.876 0 0 0-3.078-.225c-2.55.441-5.65 1.862-6.038 6.825l-.037.401c-.01.122.053.234.15.265l.34.109c.08-.042 1.613.656 3.508.251.47-.087.995-.294 1.54-.52a6.927 6.927 0 0 0 1.709-.996c1.182-.92 2.455-2.413 3.659-4.743"/>
        <g transform="translate(59)">
            <mask id="e" fill="#fff">
                <use xlink:href="#d"/>
            </mask>
            <path fill="#C5CF7E" d="M11.97 8.703l.017.209c-.073-.049-.161-.09-.274-.143-.315-.154-.766-.381-1.303-.671-1.08-.556-2.516-1.46-3.948-2.33-1.436-.816-2.844-1.81-3.75-2.737a8.294 8.294 0 0 1-.587-.658 5.552 5.552 0 0 1-.39-.554c-.106-.156-.161-.293-.21-.38l-.07-.131.062.135c.042.089.089.228.188.39.085.166.208.362.357.579.156.214.337.45.555.694.862.988 2.233 2.072 3.629 2.981.701.427 1.395.967 2.05 1.401a49.384 49.384 0 0 0 3.063 1.917c.082.044.15.084.214.118l-.375.016c-.101 0-2.224.085-4.488-.797C4.273 8.08 1.154 6.123.263 1.344L.193.939C.17.816.253.693.386.651L.854.497C.933.402 3.142-.091 5.738.556c.637.172 1.321.37 1.99.767.667.41 1.326.93 1.918 1.585 1.185 1.316 2.095 3.17 2.324 5.795" mask="url(#e)"/>
        </g>
        <path fill="#BFCB74" d="M82.809 16.883l.138-.148a14.275 14.275 0 0 1-.29-.046 29.185 29.185 0 0 0-3.28-.292c-.688-.03-1.463.092-2.192.192-1.48.237-2.857.618-3.795 1.253-.238.155-.444.32-.619.47-.175.155-.32.298-.431.427-.118.12-.191.235-.249.306l-.084.112.08-.116c.054-.075.123-.194.234-.322.106-.136.246-.289.414-.455.173-.164.372-.343.607-.516.929-.718 2.305-1.183 3.804-1.513.742-.154 1.52-.294 2.236-.34.707-.02 1.379-.009 1.962.016A27.969 27.969 0 0 1 83 16.03l-.287-.217a10.16 10.16 0 0 0-1.178-.739c-.713-.38-1.686-.876-2.866-.992-1.24-.162-2.702-.133-4.052.534-1.383.756-2.613 2.097-3.457 4.344l-.14.371c-.043.113-.013.24.07.298l.289.205c.06.06 1.393.894 3.242 1.141.467.044.997.035 1.584-.068.294-.05.602-.125.925-.226a8.17 8.17 0 0 0 .977-.314c1.352-.54 2.942-1.594 4.702-3.484M84.783 14.304l-.039.207-.237-.216c-.271-.25-.654-.614-1.11-1.067a53.356 53.356 0 0 1-1.541-1.601c-.554-.616-1.193-1.16-1.787-1.809-1.21-1.24-2.325-2.714-2.997-3.84a7.922 7.922 0 0 1-.423-.78 5.176 5.176 0 0 1-.248-.635c-.066-.178-.086-.323-.112-.422l-.035-.151.025.152c.021.1.03.247.086.428.043.184.116.404.21.651.1.247.222.522.379.81.618 1.155 1.666 2.718 2.812 4.036.565.68 1.162 1.293 1.701 1.906.53.642 1.029 1.218 1.46 1.703.431.482.795.872 1.053 1.142l.178.182-.376-.1a10.99 10.99 0 0 1-1.404-.509c-.8-.337-1.805-.916-2.879-1.548a9.712 9.712 0 0 1-3.192-3.309c-.898-1.414-1.493-3.329-1.254-5.88l.04-.422c.013-.129.127-.224.272-.225L75.872 3c.05 0 .665-.004 1.588.147.931.104 2.11.582 3.316 1.283.592.356 1.208.8 1.784 1.353.287.275.565.577.825.908.251.35.479.744.683 1.158.818 1.664 1.207 3.788.715 6.455M94.568 24.758l.179-.111c-.076-.035-.163-.078-.275-.131a30.26 30.26 0 0 0-1.314-.577c-.556-.208-1.154-.499-1.888-.658a23.038 23.038 0 0 0-2.258-.43 13.936 13.936 0 0 0-2.224-.145c-.703.018-1.398.178-1.952.35-.28.086-.53.19-.748.29a4.469 4.469 0 0 0-.55.303c-.15.086-.255.179-.332.235l-.117.088.112-.095c.075-.06.177-.16.325-.255a4.53 4.53 0 0 1 .541-.337c.216-.113.466-.233.747-.338a8.374 8.374 0 0 1 1.982-.481 13.96 13.96 0 0 1 2.278.012c1.566.126 3.21.416 4.315.856a27.695 27.695 0 0 1 1.611.611l-.223-.305a10.58 10.58 0 0 0-.96-1.099c-.568-.638-1.505-1.29-2.617-1.795-1.2-.515-2.608-1-4.227-.596-1.588.348-3.19 1.335-4.668 3.36l-.245.334c-.074.102-.08.24-.015.325l.228.298c.022.029.3.386.804.8.508.412 1.253.86 2.141 1.273.902.375 2.115.596 3.685.367 1.498-.144 3.378-.746 5.665-2.15M96.861 22.503l-.087.19a43.085 43.085 0 0 1-.892-1.627c-.306-.552-.608-1.277-1.01-1.954a40.622 40.622 0 0 1-1.177-2.233 26.901 26.901 0 0 1-1.037-2.384c-.297-.784-.586-1.466-.74-2.115a8.386 8.386 0 0 1-.183-.877 5.422 5.422 0 0 1-.062-.685c-.016-.192.005-.34.005-.44l.008-.156-.015.154c-.007.1-.037.245-.032.439-.01.19.001.422.024.69.027.266.067.569.135.894.124.657.364 1.379.64 2.167.257.812.575 1.656.92 2.467.68 1.637 1.49 3.106 1.986 4.332l.66 1.406.114.229-.314-.203c-.108-.024-1.789-1.314-3.396-3.154-.852-1-1.6-2.464-2.09-4.043-.452-1.632-.5-3.656.369-6.052l.143-.397c.044-.12.172-.178.303-.139l.461.142c.045.014.602.188 1.398.6.795.408 1.84 1.041 2.718 2.116.89 1.026 1.775 2.427 2.155 4.18.313 1.843.122 4.009-1.004 6.453M102.392 34.355l.192-.055-.217-.2c-.249-.225-.607-.542-1.047-.901-.417-.373-.99-.738-1.608-1.096a21.535 21.535 0 0 0-1.946-1.021c-1.296-.657-2.802-.943-3.917-.904a5.795 5.795 0 0 0-.759.068 4.33 4.33 0 0 0-.578.135c-.16.041-.28.101-.365.131l-.129.05.126-.057c.083-.035.204-.102.364-.153.158-.06.352-.117.58-.169.228-.048.486-.093.769-.113 1.126-.097 2.706.087 4.062.674 1.385.555 2.821 1.27 3.77 1.944A27.378 27.378 0 0 1 103 33.704l-.122-.35c-.016-.042-.202-.566-.589-1.3-.402-.72-1.11-1.579-1.978-2.368a8.09 8.09 0 0 0-1.621-1.138 6.208 6.208 0 0 0-2.135-.534c-1.54-.107-3.26.388-5.132 1.896l-.311.25c-.094.075-.136.203-.098.302l.13.345c.016.09.655 1.604 2.198 2.73.723.602 1.767 1.147 3.264 1.353.767.092 1.58.148 2.526.08.95-.07 2.032-.259 3.26-.615M105.483 32.754l-.13.15-.08-.296c-.087-.34-.208-.827-.34-1.423-.114-.61-.312-1.278-.508-2.01a37.937 37.937 0 0 1-.539-2.348c-.286-1.659-.603-3.27-.586-4.518 0-.31.022-.593.048-.844.032-.249.068-.464.114-.637.034-.178.09-.305.115-.398.031-.09.046-.14.046-.14l-.052.136c-.033.09-.097.213-.14.389-.056.169-.105.383-.15.631-.042.249-.08.533-.098.846-.096 1.263.153 2.89.35 4.582.214 1.676.611 3.225.821 4.432l.262 1.456.048.238-.242-.272a10.13 10.13 0 0 1-.837-1.122c-.467-.67-1.119-1.538-1.595-2.63-.26-.58-.494-1.237-.652-1.958-.19-.694-.333-1.431-.338-2.237-.011-1.604.45-3.448 1.858-5.376l.233-.318c.071-.097.205-.115.319-.043l.395.255a9.28 9.28 0 0 1 1.153.93c.623.606 1.478 1.437 2.066 2.62.574 1.172 1.047 2.688.967 4.376-.022.832-.25 1.753-.663 2.69-.411.935-1.012 1.885-1.845 2.84M108.217 47h.203c-.04-.068-.091-.149-.154-.251-.188-.281-.42-.693-.788-1.147-.76-.899-1.813-2.038-2.953-2.997-.539-.496-1.229-.889-1.857-1.217-.637-.327-1.251-.571-1.805-.709a5.877 5.877 0 0 0-.762-.147 4.399 4.399 0 0 0-.606-.032c-.169-.006-.303.017-.394.023l-.14.013.14-.02c.091-.01.226-.042.397-.045.173-.014.38-.013.618 0 .236.018.502.048.787.106 1.122.225 2.624.842 3.869 1.75 1.22.91 2.362 2.014 3.193 2.897.439.434.682.848.899 1.128l.136.196-.02-.368c-.02-.039.013-.614-.262-1.39a11.786 11.786 0 0 0-1.299-2.808c-.628-1.085-1.831-2.083-3.292-2.618-1.488-.53-3.294-.547-5.58.386l-.379.156c-.114.047-.184.154-.165.253l.033.366c.01.083.14 1.737 1.428 3.206.593.753 1.418 1.582 2.84 2.193.702.309 1.549.567 2.539.753.95.199 2.068.32 3.374.323M111.585 45.893l-.17.107.007-.308c.003-.35.053-.865.056-1.468a42.944 42.944 0 0 1 .145-4.493c.098-.847.114-1.65.212-2.423.093-.77.227-1.49.41-2.09.087-.301.188-.57.284-.805.1-.231.198-.43.29-.586.083-.162.175-.27.225-.351l.085-.122-.091.115c-.056.078-.153.18-.245.337-.102.15-.211.343-.325.57-.11.23-.228.495-.333.794-.457 1.199-.665 2.845-.873 4.506a45.301 45.301 0 0 0-.409 4.51c-.002.595-.103 1.118-.123 1.47a11.64 11.64 0 0 1-.02.245l-.16-.332c-.038-.033-.208-.552-.557-1.303a12.23 12.23 0 0 1-.845-2.987c-.127-1.295-.313-2.743.14-4.312.433-1.554 1.422-3.223 3.322-4.682l.315-.24c.095-.073.238-.056.339.042l.32.357c.03.034.413.47.877 1.225.464.753 1.008 1.83 1.347 3.102.29 1.273.287 2.892-.258 4.501a7.785 7.785 0 0 1-1.335 2.39c-.672.79-1.535 1.542-2.63 2.23M110.014 60.943l.198.057-.101-.292c-.118-.33-.292-.801-.516-1.353-.474-1.1-1.053-2.53-1.942-3.79-.92-1.26-1.988-2.344-2.944-2.925a5.384 5.384 0 0 0-.673-.357c-.21-.09-.396-.16-.558-.202-.153-.054-.293-.066-.385-.084l-.14-.027.142.018c.09.015.237.021.395.065.166.034.36.092.579.173.216.083.457.186.706.324 1.01.534 2.165 1.575 3.173 2.81.541.61.906 1.279 1.277 1.925.362.647.678 1.277.938 1.83.263.551.467 1.026.607 1.363l.093.233.054-.371c.006-.044.084-.602.083-1.45-.003-.844-.083-1.983-.395-3.146-.932-2.479-2.965-5.3-7.897-4.65l-.401.048c-.121.015-.218.103-.229.207l-.04.364c.054.07-.304 1.754.46 3.574.18.455.487.938.817 1.44a7.096 7.096 0 0 0 1.317 1.518c1.14 1 2.85 1.973 5.382 2.698M113.284 59.943l-.197.057.074-.294c.086-.334.215-.815.388-1.393.323-1.153.915-2.72 1.47-4.275.506-1.551 1.189-3.11 1.912-4.17a7.95 7.95 0 0 1 .524-.699 5.3 5.3 0 0 1 .465-.485c.132-.135.248-.213.318-.276l.115-.095-.12.087c-.076.06-.193.13-.334.256a5.28 5.28 0 0 0-.494.46c-.18.192-.375.415-.568.675-.792 1.028-1.572 2.568-2.175 4.099-.274.763-.66 1.539-.952 2.26-.3.718-.558 1.389-.768 1.959-.21.571-.371 1.045-.48 1.379a28.18 28.18 0 0 0-.072.23l-.093-.36c-.023-.098-.544-2.14-.15-4.505.155-2.494 1.41-5.892 5.923-7.692l.384-.146c.116-.044.252.011.323.132l.248.424c.107.06 1.072 2.106.967 4.756-.034.65-.09 1.356-.34 2.08a8.426 8.426 0 0 1-1.16 2.162c-1.045 1.403-2.685 2.642-5.208 3.374"/>
    </g>
</svg>
