<svg xmlns="http://www.w3.org/2000/svg" width="30" height="30" viewBox="0 0 30 30">
    <g fill="#A6A6A6" fill-rule="nonzero">
        <path d="M28.53 22.805h-1.36v-2.294a3.81 3.81 0 0 0-.032-.485.414.414 0 0 0 .032-.16v-2.71a3.798 3.798 0 0 0-3.795-3.794 3.799 3.799 0 0 0-3.794 3.794v2.71c0 .056.012.11.032.16-.02.159-.032.32-.032.485v2.294h-.704v-2.294a3.81 3.81 0 0 0-.032-.485.414.414 0 0 0 .032-.16v-2.71a3.798 3.798 0 0 0-3.794-3.794 3.799 3.799 0 0 0-3.794 3.794v2.71c0 .056.011.11.032.16-.02.159-.032.32-.032.485v2.294h-.704v-2.294a3.81 3.81 0 0 0-.032-.486.414.414 0 0 0 .032-.16v-2.709a3.798 3.798 0 0 0-3.794-3.794 3.798 3.798 0 0 0-3.794 3.794v2.71c0 .056.011.11.032.16-.02.159-.032.32-.032.485v2.294H1.415A.415.415 0 0 0 1 23.22v2.029c0 .23.186.415.415.415h.672v2.866c0 .23.186.415.415.415h1.819c.229 0 .415-.185.415-.415v-2.866h9.285v2.866c0 .23.186.415.415.415h1.819c.229 0 .415-.185.415-.415v-2.866h8.76v2.866c0 .23.186.415.415.415h1.82c.228 0 .414-.185.414-.415v-2.866h.451c.23 0 .416-.186.416-.415V23.22a.415.415 0 0 0-.416-.415zm-8.119-5.649a2.967 2.967 0 0 1 2.964-2.964 2.968 2.968 0 0 1 2.965 2.964v.99a3.788 3.788 0 0 0-5.929 0v-.99zm0 3.355a2.967 2.967 0 0 1 2.964-2.964 2.968 2.968 0 0 1 2.965 2.964v2.294H20.41v-2.294zm-8.292-3.355a2.967 2.967 0 0 1 2.964-2.964 2.967 2.967 0 0 1 2.964 2.964v.99a3.788 3.788 0 0 0-5.928 0v-.99zm0 3.355a2.967 2.967 0 0 1 2.964-2.964 2.967 2.967 0 0 1 2.964 2.964v2.294H12.12v-2.294zm-8.293-3.355a2.967 2.967 0 0 1 2.965-2.964 2.967 2.967 0 0 1 2.964 2.964v.99a3.788 3.788 0 0 0-5.929 0v-.99zm0 3.355a2.967 2.967 0 0 1 2.965-2.964 2.967 2.967 0 0 1 2.964 2.964v2.294H3.826v-2.294zm.08 7.604h-.989v-2.451h.989v2.451zm11.934 0h-.99v-2.451h.99v2.451zm11.409 0h-.989v-2.451h.989v2.451zm.866-3.281H1.83v-1.199h26.285v1.199zM14.973 1a3.909 3.909 0 0 0-3.904 3.904 3.909 3.909 0 0 0 3.904 3.905 3.909 3.909 0 0 0 3.904-3.905A3.909 3.909 0 0 0 14.973 1zm0 6.979a3.078 3.078 0 0 1-3.074-3.075 3.078 3.078 0 0 1 3.074-3.074 3.078 3.078 0 0 1 3.074 3.074 3.078 3.078 0 0 1-3.074 3.075z"/>
        <path d="M15.388 4.364v-1.72a.415.415 0 0 0-.83 0v1.72a.679.679 0 0 0-.261.618l-.724.703a.415.415 0 1 0 .578.595l.723-.702.004.001a.681.681 0 0 0 .51-1.215z"/>
    </g>
</svg>
